<svg xmlns="http://www.w3.org/2000/svg" width="24" height="27.319" viewBox="0 0 24 27.319">
  <path id="cold-temperature" d="M25.711,19.788,23.227,18.36l1.105-.3a1.242,1.242,0,1,0-.646-2.4l-3.5.944-3.365-1.95,3.365-1.95,3.5.944h.323a1.252,1.252,0,1,0,.323-2.484l-1.105-.236,2.484-1.428a1.246,1.246,0,0,0-1.242-2.161L21.787,8.91l.373-1.378a1.242,1.242,0,1,0-2.4-.646l-1.018,3.725-3.167,1.9V8.624l2.57-2.57A1.242,1.242,0,1,0,16.385,4.3l-.807.807V2.242a1.242,1.242,0,1,0-2.484,0V5.309L12.089,4.3a1.242,1.242,0,0,0-1.763,1.751l2.769,2.769v3.725L9.9,10.661,8.885,6.936a1.242,1.242,0,1,0-2.4.646l.4,1.329L4.2,7.37A1.246,1.246,0,1,0,2.962,9.531l2.484,1.4L4.4,11.257a1.252,1.252,0,1,0,.323,2.484h.323l3.5-.944,3.3,1.863-3.365,1.95-3.5-.944a1.242,1.242,0,1,0-.584,2.4l1.105.3L3.024,19.788a1.246,1.246,0,0,0,1.242,2.161l2.62-1.54-.373,1.378a1.242,1.242,0,0,0,.857,1.565,1.428,1.428,0,0,0,.323,0,1.242,1.242,0,0,0,1.242-.919l1.018-3.725,3.142-1.9v3.887l-2.57,2.57a1.242,1.242,0,1,0,1.763,1.751l.807-.807v2.868a1.242,1.242,0,1,0,2.484,0V24.01l1.006,1.006a1.242,1.242,0,1,0,1.763-1.751L15.578,20.5V16.77l3.191,1.85,1.018,3.725a1.242,1.242,0,0,0,1.242.919,1.428,1.428,0,0,0,.323,0,1.242,1.242,0,0,0,.882-1.527l-.447-1.329,2.657,1.54a1.246,1.246,0,0,0,1.242-2.161Z" transform="translate(-2.336 -1)" fill="#1ca4fc"/>
</svg>
