<svg xmlns="http://www.w3.org/2000/svg" xmlns:xlink="http://www.w3.org/1999/xlink" width="30" height="30" viewBox="0 0 30 30">
  <defs>
    <clipPath id="clip-path">
      <path id="Path_5" data-name="Path 5" d="M0-47.5H30v30H0Z" fill="#f96922"/>
    </clipPath>
  </defs>
  <g id="hot" transform="translate(0 47.5)" clip-path="url(#clip-path)">
    <path id="Path_1" data-name="Path 1" d="M-14.064,0a4.071,4.071,0,0,1,1.154,2.706c0,3.488-5.3,6.316-11.842,6.316S-36.594,6.194-36.594,2.706A4.075,4.075,0,0,1-35.439,0c-1.708,1.192-2.733,2.674-2.733,4.285,0,3.924,6.009,7.105,13.421,7.105S-11.33,8.209-11.33,4.285c0-1.611-1.026-3.093-2.733-4.285" transform="translate(39.751 -29.68)" fill="#f96922"/>
    <path id="Path_2" data-name="Path 2" d="M-1.152-12.434a1.185,1.185,0,0,1-1.06-.654,1.185,1.185,0,0,1,.53-1.589,5.071,5.071,0,0,0,2.5-4.467c0-1.679-.919-2.869-1.892-4.128-1.011-1.308-2.056-2.661-2.056-4.556A8.109,8.109,0,0,1-1.2-33.4a1.186,1.186,0,0,1,1.675,0,1.184,1.184,0,0,1,.008,1.667,5.821,5.821,0,0,0-1.24,3.908c0,1.086.724,2.023,1.562,3.108A8.886,8.886,0,0,1,3.19-19.145,7.438,7.438,0,0,1-.623-12.559a1.185,1.185,0,0,1-.529.125" transform="translate(9.047 -12.566)" fill="#f96922"/>
    <path id="Path_3" data-name="Path 3" d="M-1.152-12.434a1.185,1.185,0,0,1-1.06-.654,1.185,1.185,0,0,1,.53-1.589,5.071,5.071,0,0,0,2.5-4.467c0-1.679-.919-2.869-1.892-4.128-1.011-1.308-2.056-2.661-2.056-4.556A8.109,8.109,0,0,1-1.2-33.4a1.186,1.186,0,0,1,1.675,0,1.184,1.184,0,0,1,.008,1.667,5.821,5.821,0,0,0-1.24,3.908c0,1.086.724,2.023,1.562,3.108A8.89,8.89,0,0,1,3.19-19.145,7.438,7.438,0,0,1-.623-12.559a1.185,1.185,0,0,1-.529.125" transform="translate(14.574 -12.566)" fill="#f96922"/>
    <path id="Path_4" data-name="Path 4" d="M-1.152-12.434a1.185,1.185,0,0,1-1.06-.654,1.185,1.185,0,0,1,.53-1.589,5.071,5.071,0,0,0,2.5-4.467c0-1.679-.919-2.869-1.891-4.128-1.011-1.308-2.057-2.661-2.057-4.556A8.109,8.109,0,0,1-1.2-33.4a1.186,1.186,0,0,1,1.675,0,1.184,1.184,0,0,1,.008,1.667,5.821,5.821,0,0,0-1.24,3.908c0,1.086.724,2.023,1.562,3.108A8.894,8.894,0,0,1,3.19-19.145,7.438,7.438,0,0,1-.623-12.559a1.187,1.187,0,0,1-.529.125" transform="translate(20.1 -12.566)" fill="#f96922"/>
  </g>
</svg>
