<svg xmlns="http://www.w3.org/2000/svg" width="26.667" height="31.111" viewBox="0 0 26.667 31.111">
  <g id="Group_10526" data-name="Group 10526" transform="translate(-547.225 -78.354)">
    <path id="Path_28854" data-name="Path 28854" d="M664.329,118.772a2.215,2.215,0,0,1-.651-1.571V101.645H665.9a2.222,2.222,0,0,1,2.222,2.222h0v15.555H665.9A2.215,2.215,0,0,1,664.329,118.772Z" transform="translate(-94.231 -18.846)" fill="#fff" fill-rule="evenodd"/>
    <path id="Path_28855" data-name="Path 28855" d="M587.644,79a2.215,2.215,0,0,0-1.571-.651H570.518v2.222A2.222,2.222,0,0,0,572.74,82.8H588.3V80.576A2.215,2.215,0,0,0,587.644,79Z" transform="translate(-18.848)" fill="#fff" fill-rule="evenodd"/>
    <path id="Path_28856" data-name="Path 28856" d="M587.644,195.456a2.215,2.215,0,0,0-1.571-.651H570.518v2.222a2.222,2.222,0,0,0,2.222,2.222H588.3v-2.222A2.215,2.215,0,0,0,587.644,195.456Z" transform="translate(-18.848 -94.229)" fill="#fff" fill-rule="evenodd"/>
    <path id="Path_28857" data-name="Path 28857" d="M547.877,118.772a2.215,2.215,0,0,1-.651-1.571V101.645h2.222a2.222,2.222,0,0,1,2.222,2.222h0v15.555h-2.222A2.215,2.215,0,0,1,547.877,118.772Z" transform="translate(-0.001 -18.846)" fill="#fff" fill-rule="evenodd"/>
    <path id="Path_28858" data-name="Path 28858" d="M547.876,218.747a2.215,2.215,0,0,0-.651,1.571v2.222h2.222a2.222,2.222,0,0,0,2.222-2.222V218.1h-2.222A2.215,2.215,0,0,0,547.876,218.747Z" transform="translate(0 -113.075)" fill="#fff" fill-rule="evenodd"/>
  </g>
</svg>
