<?xml version="1.0" encoding="utf-8"?>
<!-- Generator: Adobe Illustrator 25.4.1, SVG Export Plug-In . SVG Version: 6.00 Build 0)  -->
<svg version="1.1" id="Layer_1" xmlns="http://www.w3.org/2000/svg" xmlns:xlink="http://www.w3.org/1999/xlink" x="0px" y="0px"
	 viewBox="0 0 32 32" style="enable-background:new 0 0 32 32;" xml:space="preserve">
<style type="text/css">
	.st0{fill-rule:evenodd;clip-rule:evenodd;fill:#E94560;}
</style>
<g transform="translate(-156 -52)">
	<path class="st0" d="M170,52c-7.7,0-14,6.3-14,14s6.3,14,14,14s14-6.3,14-14S177.7,52,170,52z M170,54c6.6,0,12,5.4,12,12
		c0,6.6-5.4,12-12,12c-6.6,0-12-5.4-12-12C158,59.4,163.4,54,170,54z"/>
	<path class="st0" d="M178.8,76.2l7.5,7.5c0.4,0.4,1,0.4,1.4,0c0.4-0.4,0.4-1,0-1.4l-7.5-7.5c-0.4-0.4-1-0.4-1.4,0
		C178.4,75.2,178.4,75.8,178.8,76.2z"/>
	<path class="st0" d="M165,63h5c0.6,0,1-0.4,1-1c0-0.6-0.4-1-1-1h-5c-0.6,0-1,0.4-1,1C164,62.6,164.4,63,165,63z"/>
	<path class="st0" d="M175,69h-5c-0.6,0-1,0.4-1,1s0.4,1,1,1h5c0.6,0,1-0.4,1-1S175.6,69,175,69z"/>
	<path class="st0" d="M175,65h-10c-0.6,0-1,0.4-1,1s0.4,1,1,1h10c0.6,0,1-0.4,1-1S175.6,65,175,65z"/>
	<path class="st0" d="M174,63h1c0.6,0,1-0.4,1-1c0-0.6-0.4-1-1-1h-1c-0.6,0-1,0.4-1,1C173,62.6,173.4,63,174,63z"/>
	<path class="st0" d="M166,69h-1c-0.6,0-1,0.4-1,1s0.4,1,1,1h1c0.6,0,1-0.4,1-1S166.6,69,166,69z"/>
</g>
</svg>
