<?xml version="1.0" encoding="utf-8"?>
<!-- Generator: Adobe Illustrator 25.4.1, SVG Export Plug-In . SVG Version: 6.00 Build 0)  -->
<svg version="1.1" id="Layer_1" xmlns="http://www.w3.org/2000/svg" xmlns:xlink="http://www.w3.org/1999/xlink" x="0px" y="0px"
	 viewBox="0 0 29 29" style="enable-background:new 0 0 29 29;" xml:space="preserve">
<style type="text/css">
	.st0{fill:#E94560;}
	.st1{stroke:#E94560;stroke-width:2;stroke-miterlimit:10;}
</style>
<path class="st0" d="M7.5,9.5C4.5,9.5,2,12,2,15s2.5,5.5,5.5,5.5S13,18,13,15S10.5,9.5,7.5,9.5z M10,16H8.5v1.5c0,0.6-0.4,1-1,1
	s-1-0.4-1-1V16H5c-0.6,0-1-0.4-1-1s0.4-1,1-1h1.5v-1.5c0-0.6,0.4-1,1-1s1,0.4,1,1V14H10c0.6,0,1,0.4,1,1S10.6,16,10,16z"/>
<path class="st1" d="M27,20.5H13 M27,16.5H15 M27,12.5H15 M27,8.5H13"/>
</svg>
