<svg width="150" height="43" viewBox="0 0 150 43" fill="none" xmlns="http://www.w3.org/2000/svg">
<path d="M149.167 38.0409C149.167 40.3325 147.257 42.1886 144.895 42.1886H5.1104C2.74962 42.1886 0.833374 40.3325 0.833374 38.0409V4.96439C0.833374 2.67395 2.74962 0.811279 5.1104 0.811279H144.894C147.257 0.811279 149.166 2.67395 149.166 4.96439L149.167 38.0409Z" fill="black"/>
<path d="M144.444 0.861346C147.017 0.861346 149.11 2.88638 149.11 5.375V37.625C149.11 40.1136 147.017 42.1387 144.444 42.1387H5.55556C2.98333 42.1387 0.890277 40.1136 0.890277 37.625V5.375C0.890277 2.88638 2.98333 0.861346 5.55556 0.861346H144.444ZM144.444 3.8147e-06H5.55556C2.50139 3.8147e-06 0 2.4201 0 5.375V37.625C0 40.5799 2.50139 43 5.55556 43H144.444C147.499 43 150 40.5799 150 37.625V5.375C150 2.4201 147.499 3.8147e-06 144.444 3.8147e-06Z" fill="#A6A6A6"/>
<path d="M33.4756 21.2679C33.4434 17.8031 36.4078 16.1175 36.5434 16.0391C34.8645 13.6708 32.2623 13.3473 31.3478 13.3215C29.1623 13.0989 27.0423 14.5867 25.9289 14.5867C24.7934 14.5867 23.0789 13.343 21.2311 13.3795C18.8534 13.415 16.6289 14.7469 15.4089 16.8152C12.8911 21.0324 14.7689 27.2298 17.1811 30.6386C18.3878 32.3081 19.7978 34.1722 21.6434 34.1066C23.4489 34.0346 24.1234 32.9929 26.3023 32.9929C28.4611 32.9929 29.0945 34.1066 30.9767 34.0647C32.9145 34.0346 34.1345 32.3877 35.2989 30.7031C36.6934 28.7896 37.2534 26.9052 37.2756 26.8084C37.23 26.7934 33.5123 25.4206 33.4756 21.2679Z" fill="white"/>
<path d="M29.92 11.079C30.8911 9.90405 31.5556 8.30552 31.3711 6.68335C29.9656 6.74355 28.2078 7.62397 27.1956 8.77315C26.3 9.7858 25.5 11.4456 25.7067 13.0065C27.2856 13.1204 28.9067 12.2357 29.92 11.079Z" fill="white"/>
<path d="M54.5 10.7596C54.5 12.0249 54.1078 12.9773 53.3245 13.617C52.5989 14.2071 51.5678 14.5028 50.2323 14.5028C49.57 14.5028 49.0034 14.4748 48.5289 14.4189V7.50557C49.1478 7.40882 49.8145 7.35938 50.5345 7.35938C51.8067 7.35938 52.7656 7.62705 53.4123 8.1624C54.1367 8.76762 54.5 9.633 54.5 10.7596ZM53.2723 10.7908C53.2723 9.97055 53.0478 9.34167 52.5989 8.90307C52.15 8.46555 51.4945 8.24625 50.6312 8.24625C50.2645 8.24625 49.9523 8.2699 49.6934 8.31935V13.575C49.8367 13.5965 50.0989 13.6062 50.48 13.6062C51.3712 13.6062 52.0589 13.3665 52.5434 12.887C53.0278 12.4076 53.2723 11.7088 53.2723 10.7908Z" fill="white"/>
<path d="M61.01 11.8646C61.01 12.644 60.78 13.2825 60.32 13.7835C59.8378 14.2984 59.1989 14.5553 58.4011 14.5553C57.6322 14.5553 57.02 14.3091 56.5633 13.8146C56.1078 13.3212 55.88 12.6988 55.88 11.9484C55.88 11.1637 56.1144 10.5198 56.5856 10.0199C57.0567 9.52001 57.69 9.26953 58.4878 9.26953C59.2567 9.26953 59.8745 9.51571 60.3422 10.0091C60.7867 10.4886 61.01 11.1078 61.01 11.8646ZM59.8022 11.9011C59.8022 11.4335 59.6978 11.0325 59.49 10.6982C59.2456 10.294 58.8978 10.0919 58.4456 10.0919C57.9778 10.0919 57.6222 10.294 57.3778 10.6982C57.1689 11.0325 57.0656 11.44 57.0656 11.9216C57.0656 12.3892 57.17 12.7902 57.3778 13.1245C57.63 13.5287 57.9811 13.7308 58.4345 13.7308C58.8789 13.7308 59.2278 13.5255 59.4789 13.1137C59.6945 12.773 59.8022 12.3688 59.8022 11.9011Z" fill="white"/>
<path d="M69.7389 9.3728L68.1 14.4404H67.0334L66.3545 12.2398C66.1822 11.6905 66.0422 11.1444 65.9334 10.6026H65.9122C65.8111 11.1595 65.6711 11.7045 65.4911 12.2398L64.77 14.4404H63.6911L62.15 9.3728H63.3467L63.9389 11.7819C64.0822 12.3516 64.2 12.8945 64.2945 13.4084H64.3156C64.4022 12.9848 64.5456 12.4452 64.7478 11.7926L65.4911 9.37388H66.44L67.1522 11.741C67.3245 12.3183 67.4645 12.8741 67.5722 13.4094H67.6045C67.6834 12.8881 67.8022 12.3323 67.96 11.741L68.5956 9.37388H69.7389V9.3728Z" fill="white"/>
<path d="M75.7755 14.4403H74.6111V11.5378C74.6111 10.6434 74.26 10.1962 73.5555 10.1962C73.21 10.1962 72.9311 10.3188 72.7144 10.565C72.5 10.8111 72.3911 11.1014 72.3911 11.4336V14.4393H71.2267V10.8208C71.2267 10.3758 71.2122 9.89308 71.1844 9.37063H72.2078L72.2622 10.1629H72.2944C72.43 9.91673 72.6322 9.71356 72.8978 9.55123C73.2133 9.36203 73.5667 9.26636 73.9533 9.26636C74.4422 9.26636 74.8489 9.41901 75.1722 9.72538C75.5744 10.1006 75.7755 10.6606 75.7755 11.4045V14.4403V14.4403Z" fill="white"/>
<path d="M78.9867 14.4404H77.8234V7.04761H78.9867V14.4404Z" fill="white"/>
<path d="M85.8423 11.8646C85.8423 12.644 85.6123 13.2825 85.1523 13.7835C84.6701 14.2984 84.0301 14.5553 83.2334 14.5553C82.4634 14.5553 81.8512 14.3091 81.3956 13.8146C80.9401 13.3212 80.7123 12.6988 80.7123 11.9484C80.7123 11.1637 80.9467 10.5198 81.4178 10.0199C81.8889 9.52001 82.5223 9.26953 83.3189 9.26953C84.0889 9.26953 84.7056 9.51571 85.1745 10.0091C85.6189 10.4886 85.8423 11.1078 85.8423 11.8646ZM84.6334 11.9011C84.6334 11.4335 84.5289 11.0325 84.3212 10.6982C84.0778 10.294 83.7289 10.0919 83.2778 10.0919C82.8089 10.0919 82.4534 10.294 82.2101 10.6982C82.0012 11.0325 81.8978 11.44 81.8978 11.9216C81.8978 12.3892 82.0023 12.7902 82.2101 13.1245C82.4623 13.5287 82.8134 13.7308 83.2667 13.7308C83.7112 13.7308 84.0589 13.5255 84.3101 13.1137C84.5267 12.773 84.6334 12.3688 84.6334 11.9011Z" fill="white"/>
<path d="M91.4779 14.4403H90.4323L90.3456 13.8566H90.3134C89.9556 14.322 89.4456 14.5553 88.7834 14.5553C88.289 14.5553 87.889 14.4016 87.5879 14.0963C87.3145 13.8189 87.1779 13.4739 87.1779 13.0643C87.1779 12.4451 87.4445 11.9732 87.9812 11.6464C88.5167 11.3196 89.2701 11.1594 90.2401 11.1669V11.0723C90.2401 10.4047 89.8779 10.0715 89.1523 10.0715C88.6356 10.0715 88.1801 10.1973 87.7867 10.4467L87.5501 9.70706C88.0367 9.41573 88.6379 9.26953 89.3467 9.26953C90.7156 9.26953 91.4023 9.96828 91.4023 11.3658V13.232C91.4023 13.7383 91.4279 14.1414 91.4779 14.4403ZM90.269 12.6988V11.9173C88.9845 11.8958 88.3423 12.2365 88.3423 12.9385C88.3423 13.203 88.4156 13.4008 88.5656 13.533C88.7156 13.6652 88.9067 13.7308 89.1345 13.7308C89.3901 13.7308 89.629 13.6523 89.8467 13.4964C90.0656 13.3395 90.2001 13.1406 90.2501 12.8966C90.2623 12.8418 90.269 12.7751 90.269 12.6988Z" fill="white"/>
<path d="M98.0945 14.4404H97.0611L97.0067 13.6266H96.9745C96.6445 14.2458 96.0823 14.5554 95.2923 14.5554C94.6611 14.5554 94.1356 14.3157 93.7189 13.8362C93.3023 13.3568 93.0945 12.7344 93.0945 11.97C93.0945 11.1498 93.32 10.4855 93.7734 9.97806C94.2123 9.50506 94.75 9.26856 95.39 9.26856C96.0934 9.26856 96.5856 9.49753 96.8656 9.95656H96.8878V7.04761H98.0534V13.0751C98.0534 13.5686 98.0667 14.0233 98.0945 14.4404ZM96.8878 12.3033V11.4583C96.8878 11.3121 96.8767 11.1939 96.8556 11.1036C96.79 10.8327 96.6489 10.6048 96.4345 10.421C96.2178 10.2371 95.9567 10.1447 95.6556 10.1447C95.2211 10.1447 94.8811 10.3113 94.6311 10.6456C94.3834 10.98 94.2578 11.4067 94.2578 11.9281C94.2578 12.4291 94.3767 12.8354 94.6156 13.1482C94.8678 13.4815 95.2078 13.6481 95.6334 13.6481C96.0156 13.6481 96.3211 13.5094 96.5534 13.231C96.7778 12.9741 96.8878 12.6645 96.8878 12.3033Z" fill="white"/>
<path d="M108.053 11.8646C108.053 12.644 107.823 13.2825 107.363 13.7835C106.881 14.2984 106.243 14.5553 105.444 14.5553C104.677 14.5553 104.064 14.3091 103.607 13.8146C103.151 13.3212 102.923 12.6988 102.923 11.9484C102.923 11.1637 103.158 10.5198 103.629 10.0199C104.1 9.52001 104.733 9.26953 105.532 9.26953C106.3 9.26953 106.919 9.51571 107.386 10.0091C107.83 10.4886 108.053 11.1078 108.053 11.8646ZM106.847 11.9011C106.847 11.4335 106.742 11.0325 106.534 10.6982C106.289 10.294 105.942 10.0919 105.489 10.0919C105.022 10.0919 104.667 10.294 104.421 10.6982C104.212 11.0325 104.109 11.44 104.109 11.9216C104.109 12.3892 104.213 12.7902 104.421 13.1245C104.673 13.5287 105.024 13.7308 105.478 13.7308C105.922 13.7308 106.272 13.5255 106.523 13.1137C106.738 12.773 106.847 12.3688 106.847 11.9011Z" fill="white"/>
<path d="M114.314 14.4403H113.151V11.5378C113.151 10.6434 112.8 10.1962 112.094 10.1962C111.749 10.1962 111.47 10.3188 111.254 10.565C111.039 10.8111 110.931 11.1014 110.931 11.4336V14.4393H109.766V10.8208C109.766 10.3758 109.752 9.89308 109.724 9.37063H110.747L110.801 10.1629H110.833C110.97 9.91673 111.172 9.71356 111.437 9.55123C111.753 9.36203 112.106 9.26636 112.493 9.26636C112.981 9.26636 113.388 9.41901 113.711 9.72538C114.114 10.1006 114.314 10.6606 114.314 11.4045V14.4403V14.4403Z" fill="white"/>
<path d="M122.151 10.2168H120.869V12.6785C120.869 13.3042 121.097 13.617 121.548 13.617C121.757 13.617 121.93 13.5998 122.067 13.5643L122.097 14.4189C121.867 14.5028 121.565 14.5447 121.192 14.5447C120.732 14.5447 120.375 14.4093 120.116 14.1384C119.856 13.8675 119.727 13.4117 119.727 12.772V10.2168H118.961V9.37289H119.727V8.44409L120.868 8.11084V9.37182H122.15V10.2168H122.151Z" fill="white"/>
<path d="M128.316 14.4404H127.15V11.5594C127.15 10.651 126.799 10.1963 126.096 10.1963C125.556 10.1963 125.187 10.4597 124.985 10.9864C124.95 11.0971 124.93 11.2326 124.93 11.3917V14.4393H123.767V7.04761H124.93V10.1017H124.952C125.319 9.54591 125.845 9.26856 126.526 9.26856C127.008 9.26856 127.407 9.42121 127.723 9.72758C128.118 10.1092 128.316 10.6768 128.316 11.4272V14.4404V14.4404Z" fill="white"/>
<path d="M134.674 11.6669C134.674 11.869 134.659 12.0389 134.631 12.1776H131.139C131.154 12.6785 131.321 13.0601 131.644 13.3246C131.94 13.5611 132.321 13.6793 132.788 13.6793C133.304 13.6793 133.776 13.5998 134.2 13.4396L134.382 14.2222C133.886 14.4308 133.301 14.535 132.624 14.535C131.813 14.535 131.174 14.3039 130.712 13.8417C130.248 13.3794 130.018 12.7591 130.018 11.9808C130.018 11.2165 130.232 10.5801 130.664 10.0727C131.116 9.53091 131.726 9.26001 132.496 9.26001C133.249 9.26001 133.821 9.53091 134.208 10.0727C134.52 10.5027 134.674 11.0348 134.674 11.6669ZM133.563 11.3756C133.572 11.0413 133.496 10.7532 133.338 10.5102C133.136 10.1974 132.828 10.0405 132.411 10.0405C132.031 10.0405 131.721 10.1931 131.484 10.4995C131.291 10.7435 131.177 11.0348 131.139 11.3756H133.563Z" fill="white"/>
<path d="M59.6055 33.8669H57.0822L55.7 29.6647H50.8955L49.5789 33.8669H47.1222L51.8822 19.5608H54.8222L59.6055 33.8669ZM55.2833 27.9017L54.0333 24.1661C53.9011 23.7845 53.6533 22.8858 53.2877 21.4711H53.2433C53.0977 22.0795 52.8633 22.9782 52.5411 24.1661L51.3133 27.9017H55.2833V27.9017Z" fill="white"/>
<path d="M71.8466 28.5821C71.8466 30.3365 71.3566 31.7233 70.3766 32.7413C69.4989 33.6475 68.4089 34.1001 67.1077 34.1001C65.7033 34.1001 64.6944 33.6121 64.08 32.636H64.0355V38.0701H61.6666V26.9471C61.6666 25.8441 61.6366 24.7121 61.5789 23.5511H63.6622L63.7944 25.1862H63.8389C64.6289 23.9543 65.8277 23.3394 67.4366 23.3394C68.6944 23.3394 69.7444 23.8199 70.5844 24.782C71.4266 25.7452 71.8466 27.0116 71.8466 28.5821ZM69.4333 28.666C69.4333 27.6619 69.2 26.8342 68.7311 26.1827C68.2189 25.5033 67.5311 25.1636 66.6689 25.1636C66.0844 25.1636 65.5533 25.3528 65.0789 25.7259C64.6033 26.1021 64.2922 26.5934 64.1466 27.2018C64.0733 27.4856 64.0366 27.7178 64.0366 27.9006V29.6206C64.0366 30.3709 64.2744 31.0041 64.75 31.5212C65.2255 32.0383 65.8433 32.2963 66.6033 32.2963C67.4955 32.2963 68.19 31.963 68.6866 31.2987C69.1844 30.6332 69.4333 29.756 69.4333 28.666Z" fill="white"/>
<path d="M84.1099 28.5821C84.1099 30.3365 83.6199 31.7233 82.6388 32.7413C81.7622 33.6475 80.6722 34.1001 79.371 34.1001C77.9666 34.1001 76.9577 33.6121 76.3444 32.636H76.2999V38.0701H73.931V26.9471C73.931 25.8441 73.901 24.7121 73.8433 23.5511H75.9266L76.0588 25.1862H76.1033C76.8921 23.9543 78.091 23.3394 79.701 23.3394C80.9577 23.3394 82.0077 23.8199 82.8499 24.782C83.6888 25.7452 84.1099 27.0116 84.1099 28.5821ZM81.6966 28.666C81.6966 27.6619 81.4622 26.8342 80.9933 26.1827C80.481 25.5033 79.7955 25.1636 78.9322 25.1636C78.3466 25.1636 77.8166 25.3528 77.341 25.7259C76.8655 26.1021 76.5555 26.5934 76.4099 27.2018C76.3377 27.4856 76.2999 27.7178 76.2999 27.9006V29.6206C76.2999 30.3709 76.5377 31.0041 77.011 31.5212C77.4866 32.0372 78.1044 32.2963 78.8666 32.2963C79.7588 32.2963 80.4533 31.963 80.9499 31.2987C81.4477 30.6332 81.6966 29.756 81.6966 28.666Z" fill="white"/>
<path d="M97.821 29.8549C97.821 31.0718 97.3844 32.0619 96.5077 32.8262C95.5444 33.6615 94.2033 34.0786 92.4799 34.0786C90.8888 34.0786 89.6133 33.7819 88.6477 33.1874L89.1966 31.2771C90.2366 31.8856 91.3777 32.1909 92.621 32.1909C93.5133 32.1909 94.2077 31.9952 94.7066 31.6061C95.2033 31.2169 95.451 30.6945 95.451 30.043C95.451 29.4625 95.2466 28.9734 94.8366 28.5767C94.4288 28.1801 93.7477 27.8113 92.7966 27.4706C90.2077 26.5364 88.9144 25.1679 88.9144 23.3684C88.9144 22.1923 89.3677 21.228 90.2755 20.4777C91.1799 19.7262 92.3866 19.3511 93.8955 19.3511C95.241 19.3511 96.3588 19.5779 97.251 20.0305L96.6588 21.8988C95.8255 21.4602 94.8833 21.2409 93.8288 21.2409C92.9955 21.2409 92.3444 21.4398 91.8777 21.8354C91.4833 22.1891 91.2855 22.6202 91.2855 23.1308C91.2855 23.6962 91.511 24.1639 91.9644 24.5315C92.3588 24.8712 93.0755 25.2389 94.1155 25.6355C95.3877 26.1311 96.3222 26.7105 96.9233 27.3749C97.5222 28.0371 97.821 28.8659 97.821 29.8549Z" fill="white"/>
<path d="M105.653 25.271H103.042V30.2795C103.042 31.5533 103.502 32.1897 104.424 32.1897C104.848 32.1897 105.199 32.1543 105.477 32.0833L105.542 33.8237C105.076 33.9925 104.461 34.0774 103.7 34.0774C102.764 34.0774 102.033 33.8012 101.506 33.2497C100.98 32.6971 100.716 31.7705 100.716 30.4687V25.2689H99.16V23.5489H100.716V21.6601L103.042 20.9807V23.5489H105.653V25.271Z" fill="white"/>
<path d="M117.434 28.624C117.434 30.2096 116.966 31.5114 116.03 32.5294C115.049 33.5776 113.747 34.1 112.123 34.1C110.559 34.1 109.313 33.598 108.384 32.5939C107.456 31.5899 106.991 30.3225 106.991 28.7949C106.991 27.1964 107.469 25.887 108.428 24.869C109.384 23.8499 110.676 23.3403 112.299 23.3403C113.863 23.3403 115.122 23.8424 116.072 24.8475C116.981 25.8225 117.434 27.0813 117.434 28.624ZM114.977 28.6981C114.977 27.7468 114.767 26.9308 114.341 26.2504C113.844 25.4269 113.134 25.0163 112.214 25.0163C111.262 25.0163 110.539 25.428 110.042 26.2504C109.617 26.9319 109.407 27.7607 109.407 28.7411C109.407 29.6925 109.617 30.5084 110.042 31.1878C110.554 32.0113 111.27 32.4219 112.193 32.4219C113.098 32.4219 113.808 32.0027 114.32 31.1663C114.757 30.473 114.977 29.6484 114.977 28.6981Z" fill="white"/>
<path d="M125.134 25.5668C124.9 25.5248 124.65 25.5033 124.388 25.5033C123.554 25.5033 122.91 25.8076 122.457 26.4171C122.062 26.9546 121.864 27.634 121.864 28.4542V33.8668H119.497L119.519 26.7998C119.519 25.6108 119.489 24.5283 119.43 23.5522H121.493L121.58 25.5259H121.645C121.895 24.8476 122.29 24.3015 122.83 23.8919C123.358 23.5232 123.928 23.3394 124.542 23.3394C124.761 23.3394 124.959 23.3544 125.134 23.3813V25.5668Z" fill="white"/>
<path d="M135.729 28.221C135.729 28.6316 135.701 28.9778 135.642 29.2605H128.536C128.563 30.2796 128.907 31.059 129.567 31.5965C130.166 32.077 130.94 32.3178 131.891 32.3178C132.943 32.3178 133.903 32.1555 134.767 31.8298L135.138 33.4208C134.129 33.8465 132.938 34.0582 131.563 34.0582C129.91 34.0582 128.612 33.5874 127.668 32.6468C126.726 31.7061 126.253 30.443 126.253 28.8585C126.253 27.3029 126.692 26.0076 127.571 24.9745C128.491 23.8715 129.734 23.3201 131.299 23.3201C132.836 23.3201 133.999 23.8715 134.789 24.9745C135.414 25.8506 135.729 26.9342 135.729 28.221ZM133.47 27.6265C133.486 26.9471 133.331 26.3602 133.01 25.8646C132.6 25.2271 131.97 24.9089 131.122 24.9089C130.348 24.9089 129.718 25.2196 129.237 25.8431C128.842 26.3387 128.608 26.9331 128.536 27.6254H133.47V27.6265Z" fill="white"/>
</svg>
