<svg id="Capa_1" data-name="Capa 1" xmlns="http://www.w3.org/2000/svg" viewBox="0 0 487.08 486.84"><defs><style>.cls-1{fill:#25b50b;}.cls-2{fill:#dd9a05;}</style></defs><path class="cls-1" d="M288.87,358.45c-12.4-12.3-27.9-12.2-40.2,0-9.4,9.3-18.8,18.6-28.1,28.2-2.5,2.6-4.6,3.1-7.8,1.4-6.1-3.3-12.5-6-18.4-9.6-27.3-17.1-50.1-39.2-70.3-64-10.1-12.4-19-25.5-25.2-40.4-1.3-3-1.1-5,1.4-7.4,9.4-9.1,18.6-18.4,27.8-27.7,12.9-12.9,12.8-28.1-.1-41.2-7.3-7.4-14.7-14.7-22.1-22.1-7.6-7.6-15.1-15.2-22.8-22.7-12.4-12.2-27.9-12.2-40.2,0-9.4,9.3-18.6,18.9-28.2,28a45.81,45.81,0,0,0-14.4,30.9c-1.5,19.6,3.4,38.2,10.1,56.3,13.9,37.5,35.1,70.7,60.7,101.2,34.7,41.3,76.1,73.9,124.5,97.4,21.8,10.6,44.4,18.7,69,20.1,16.9.9,31.6-3.3,43.4-16.5,8.1-9,17.1-17.2,25.7-25.9,12.7-12.8,12.8-28.3.2-40.9C319.07,388.55,304,373.45,288.87,358.45Z" transform="translate(0 -0.12)"/><path class="cls-2" d="M442.17,45.05a153.38,153.38,0,0,0-223.4,210l1.6,1.3c-5.8,12.5-15.8,27.9-31.6,35.7a6,6,0,0,0,1.7,11.2c17.3,2.7,41.9-.2,65-17.6l.5.1A153.44,153.44,0,0,0,442.07,262C502.07,202,502.07,104.85,442.17,45.05Zm-101.9,13.7A24.89,24.89,0,0,1,365,84.05c-.1,13.8-11.3,25.1-24.8,25a25.16,25.16,0,0,1-25-25.4A24.88,24.88,0,0,1,340.27,58.75Zm35.5,168.5a13.08,13.08,0,0,1-3.5,6c-9.1,9.2-19.9,14.7-33,14.9a110.5,110.5,0,0,1-18.2-1c-10-1.4-22.7-13.8-20.9-27,1.2-9,2.6-18,4.1-27,2.6-15.6,5.5-31.2,8.2-46.8a15.14,15.14,0,0,0,.2-3c0-6.5-2.1-8.8-8.5-9.7a44,44,0,0,1-8.2-1.5c-3.2-1.2-4.7-3.7-4.4-6.2.3-2.7,2-4.5,5.6-5.1a27.35,27.35,0,0,1,5.7-.4h47.4c5.8,0,9.3,2.8,9.5,8.6a71.55,71.55,0,0,1-1.6,14.5q-4.8,26.85-9.8,53.5c-1.1,5.9-2.3,11.8-3,17.8a24.93,24.93,0,0,0,.8,8.6c1,3.7,3.7,5.8,7.5,5.4a42.83,42.83,0,0,0,9.3-2.6c2.4-.9,4.6-2.6,7-3.6C373.77,221.05,376.77,223.45,375.77,227.25Z" transform="translate(0 -0.12)"/></svg>