<svg id="Layer_1" data-name="Layer 1" xmlns="http://www.w3.org/2000/svg" viewBox="0 0 43.9 47"><defs><style>.cls-1{fill:#00b2c4;}</style></defs><path class="cls-1" d="M46.3,19.7H5.7a1.58,1.58,0,0,0-1.6,1.6V44.8a4.69,4.69,0,0,0,4.7,4.7H43.2a4.69,4.69,0,0,0,4.7-4.7V21.3A1.58,1.58,0,0,0,46.3,19.7ZM18.2,41.6a1.58,1.58,0,0,1-1.6,1.6H13.5a1.58,1.58,0,0,1-1.6-1.6V38.5a1.58,1.58,0,0,1,1.6-1.6h3.1a1.58,1.58,0,0,1,1.6,1.6Zm10.9,0a1.58,1.58,0,0,1-1.6,1.6H24.4a1.58,1.58,0,0,1-1.6-1.6V38.5a1.58,1.58,0,0,1,1.6-1.6h3.1a1.58,1.58,0,0,1,1.6,1.6Zm0-10.9a1.58,1.58,0,0,1-1.6,1.6H24.4a1.58,1.58,0,0,1-1.6-1.6V27.6A1.58,1.58,0,0,1,24.4,26h3.1a1.58,1.58,0,0,1,1.6,1.6Zm11,0a1.58,1.58,0,0,1-1.6,1.6H35.4a1.58,1.58,0,0,1-1.6-1.6V27.6A1.58,1.58,0,0,1,35.4,26h3.1a1.58,1.58,0,0,1,1.6,1.6ZM43.2,7.2H39.3V5.6a3.1,3.1,0,1,0-6.2,0V7.2H19V5.6a3.1,3.1,0,0,0-6.2,0V7.2h-4a4.69,4.69,0,0,0-4.7,4.7v1.6a1.58,1.58,0,0,0,1.6,1.6H46.4A1.58,1.58,0,0,0,48,13.5V11.9A4.85,4.85,0,0,0,43.2,7.2Z" transform="translate(-4.1 -2.5)"/></svg>