<svg width="150" height="43" viewBox="0 0 150 43" fill="none" xmlns="http://www.w3.org/2000/svg">
<path d="M144.444 43H5.55556C2.50139 43 0 40.5799 0 37.625V5.375C0 2.42009 2.50139 -1.90735e-06 5.55556 -1.90735e-06H144.444C147.499 -1.90735e-06 150 2.42009 150 5.375V37.625C150 40.5799 147.499 43 144.444 43Z" fill="black"/>
<path d="M144.444 0.86134C147.017 0.86134 149.11 2.88637 149.11 5.375V37.625C149.11 40.1136 147.017 42.1387 144.444 42.1387H5.55556C2.98333 42.1387 0.890277 40.1136 0.890277 37.625V5.375C0.890277 2.88637 2.98333 0.86134 5.55556 0.86134H144.444ZM144.444 -1.90735e-06H5.55556C2.50139 -1.90735e-06 0 2.42009 0 5.375V37.625C0 40.5799 2.50139 43 5.55556 43H144.444C147.499 43 150 40.5799 150 37.625V5.375C150 2.42009 147.499 -1.90735e-06 144.444 -1.90735e-06Z" fill="#A6A6A6"/>
<path d="M11.5945 8.104C11.2681 8.43457 11.0792 8.94922 11.0792 9.61572V33.3894C11.0792 34.0559 11.2681 34.5705 11.5945 34.9011L11.6751 34.9736L25.4445 21.6571V21.3426L11.6751 8.02607L11.5945 8.104Z" fill="url(#paint0_linear_209_3511)"/>
<path d="M30.0292 26.0981L25.4445 21.6571V21.3426L30.0347 16.9015L30.1375 16.9593L35.5736 19.9518C37.125 20.8011 37.125 22.1986 35.5736 23.0532L30.1375 26.0404L30.0292 26.0981V26.0981Z" fill="url(#paint1_linear_209_3511)"/>
<path d="M30.1375 26.0404L25.4445 21.4999L11.5945 34.9011C12.1098 35.4252 12.95 35.4883 13.9056 34.9643L30.1375 26.0404" fill="url(#paint2_linear_209_3511)"/>
<path d="M30.1375 16.9595L13.9056 8.03563C12.95 7.51694 12.1098 7.5801 11.5945 8.10416L25.4445 21.5L30.1375 16.9595Z" fill="url(#paint3_linear_209_3511)"/>
<path d="M52.6862 11.012C52.6862 11.9097 52.4084 12.6286 51.8612 13.1647C51.232 13.8003 50.4125 14.1201 49.4084 14.1201C48.4487 14.1201 47.6292 13.7949 46.957 13.154C46.2834 12.5036 45.9473 11.7054 45.9473 10.75C45.9473 9.7946 46.2834 8.99641 46.957 8.35141C47.6292 7.70507 48.4487 7.37988 49.4084 7.37988C49.8862 7.37988 50.3417 7.47529 50.7764 7.65266C51.2098 7.83138 51.5625 8.07326 51.8181 8.37157L51.2375 8.93863C50.7917 8.42935 50.1848 8.17807 49.4084 8.17807C48.7084 8.17807 48.1014 8.41457 47.5862 8.8916C47.0764 9.36998 46.8209 9.98945 46.8209 10.75C46.8209 11.5106 47.0764 12.1354 47.5862 12.6138C48.1014 13.0854 48.7084 13.3273 49.4084 13.3273C50.1514 13.3273 50.7764 13.0854 51.2695 12.6084C51.5945 12.2926 51.7792 11.8573 51.8278 11.3009H49.4084V10.5243H52.6362C52.675 10.6922 52.6862 10.8548 52.6862 11.012V11.012Z" fill="white" stroke="white" stroke-width="0.16" stroke-miterlimit="10"/>
<path d="M57.807 8.31906H54.7751V10.3616H57.5084V11.1382H54.7751V13.1807H57.807V13.9722H53.9167V7.52759H57.807V8.31906Z" fill="white" stroke="white" stroke-width="0.16" stroke-miterlimit="10"/>
<path d="M61.4208 13.9722H60.5625V8.31906H58.7028V7.52759H63.2819V8.31906H61.4208V13.9722V13.9722Z" fill="white" stroke="white" stroke-width="0.16" stroke-miterlimit="10"/>
<path d="M66.5959 13.9722V7.52759H67.4529V13.9722H66.5959Z" fill="white" stroke="white" stroke-width="0.16" stroke-miterlimit="10"/>
<path d="M71.2514 13.9722H70.4V8.31906H68.5333V7.52759H73.118V8.31906H71.2514V13.9722Z" fill="white" stroke="white" stroke-width="0.16" stroke-miterlimit="10"/>
<path d="M81.7876 13.1432C81.1306 13.7949 80.3167 14.1201 79.3459 14.1201C78.3695 14.1201 77.5556 13.7949 76.8987 13.1432C76.2431 12.4929 75.9167 11.6947 75.9167 10.75C75.9167 9.80535 76.2431 9.00716 76.8987 8.35679C77.5556 7.70507 78.3695 7.37988 79.3459 7.37988C80.3112 7.37988 81.1251 7.70507 81.782 8.36216C82.4431 9.01791 82.7695 9.81073 82.7695 10.75C82.7695 11.6947 82.4431 12.4929 81.7876 13.1432ZM77.5334 12.603C78.0279 13.0854 78.6292 13.3273 79.3459 13.3273C80.057 13.3273 80.664 13.0854 81.1529 12.603C81.6459 12.1206 81.8959 11.5012 81.8959 10.75C81.8959 9.99885 81.6459 9.37938 81.1529 8.89698C80.664 8.41457 80.057 8.1727 79.3459 8.1727C78.6292 8.1727 78.0279 8.41457 77.5334 8.89698C77.0404 9.37938 76.7904 9.99885 76.7904 10.75C76.7904 11.5012 77.0404 12.1206 77.5334 12.603V12.603Z" fill="white" stroke="white" stroke-width="0.16" stroke-miterlimit="10"/>
<path d="M83.9736 13.9722V7.52759H85.0153L88.2542 12.5398H88.2917L88.2542 11.3008V7.52759H89.1111V13.9722H88.2167L84.825 8.71278H84.7875L84.825 9.95709V13.9722H83.9736V13.9722Z" fill="white" stroke="white" stroke-width="0.16" stroke-miterlimit="10"/>
<path d="M75.7055 23.3839C73.0958 23.3839 70.9639 25.3055 70.9639 27.9567C70.9639 30.5864 73.0958 32.5281 75.7055 32.5281C78.3208 32.5281 80.4527 30.5864 80.4527 27.9567C80.4527 25.3055 78.3208 23.3839 75.7055 23.3839ZM75.7055 30.7275C74.2736 30.7275 73.0416 29.584 73.0416 27.9567C73.0416 26.3079 74.2736 25.1846 75.7055 25.1846C77.1375 25.1846 78.375 26.3079 78.375 27.9567C78.375 29.584 77.1375 30.7275 75.7055 30.7275V30.7275ZM65.3597 23.3839C62.7444 23.3839 60.618 25.3055 60.618 27.9567C60.618 30.5864 62.7444 32.5281 65.3597 32.5281C67.9736 32.5281 70.1014 30.5864 70.1014 27.9567C70.1014 25.3055 67.9736 23.3839 65.3597 23.3839ZM65.3597 30.7275C63.9264 30.7275 62.6902 29.584 62.6902 27.9567C62.6902 26.3079 63.9264 25.1846 65.3597 25.1846C66.7916 25.1846 68.0236 26.3079 68.0236 27.9567C68.0236 29.584 66.7916 30.7275 65.3597 30.7275ZM53.0486 24.7855V26.7285H57.8444C57.7041 27.8143 57.3291 28.6125 56.7541 29.1688C56.0541 29.8406 54.9639 30.5864 53.0486 30.5864C50.0972 30.5864 47.7861 28.2819 47.7861 25.4264C47.7861 22.571 50.0972 20.2664 53.0486 20.2664C54.6444 20.2664 55.8055 20.8698 56.6625 21.6518L58.0778 20.2826C56.8791 19.1753 55.2847 18.3247 53.0486 18.3247C49.0014 18.3247 45.6 21.5107 45.6 25.4264C45.6 29.3421 49.0014 32.5281 53.0486 32.5281C55.2361 32.5281 56.8791 31.8348 58.1708 30.534C59.4944 29.2534 59.9069 27.4528 59.9069 25.9989C59.9069 25.5474 59.868 25.1321 59.7986 24.7855H53.0486ZM103.39 26.2918C103 25.2692 101.796 23.3839 99.343 23.3839C96.9125 23.3839 94.8888 25.237 94.8888 27.9567C94.8888 30.5179 96.8916 32.5281 99.5763 32.5281C101.747 32.5281 103 31.2476 103.515 30.5018L101.904 29.4631C101.367 30.2236 100.635 30.7275 99.5763 30.7275C98.525 30.7275 97.7708 30.2612 97.2875 29.3421L103.608 26.8118L103.39 26.2918V26.2918ZM96.9458 27.8143C96.8916 26.0513 98.3611 25.1483 99.4138 25.1483C100.239 25.1483 100.939 25.5474 101.172 26.1185L96.9458 27.8143V27.8143ZM91.8083 32.25H93.8861V18.8125H91.8083V32.25ZM88.4055 24.4025H88.3361C87.8694 23.8677 86.9791 23.3839 85.8514 23.3839C83.4847 23.3839 81.3208 25.3942 81.3208 27.9715C81.3208 30.534 83.4847 32.5281 85.8514 32.5281C86.9791 32.5281 87.8694 32.0404 88.3361 31.4894H88.4055V32.1452C88.4055 33.8934 87.4402 34.8327 85.8833 34.8327C84.6138 34.8327 83.8264 33.9458 83.5014 33.2L81.6944 33.9297C82.2152 35.1417 83.5944 36.6333 85.8833 36.6333C88.3194 36.6333 90.375 35.2466 90.375 31.8724V23.6621H88.4055V24.4025V24.4025ZM86.0291 30.7275C84.5972 30.7275 83.3986 29.5679 83.3986 27.9715C83.3986 26.3603 84.5972 25.1846 86.0291 25.1846C87.4402 25.1846 88.5527 26.3603 88.5527 27.9715C88.5527 29.5679 87.4402 30.7275 86.0291 30.7275V30.7275ZM113.118 18.8125H108.149V32.25H110.221V27.1585H113.118C115.419 27.1585 117.676 25.5474 117.676 22.9848C117.676 20.4236 115.414 18.8125 113.118 18.8125V18.8125ZM113.172 25.2894H110.221V20.6816H113.172C114.719 20.6816 115.603 21.9246 115.603 22.9848C115.603 24.0249 114.719 25.2894 113.172 25.2894ZM125.982 23.3584C124.485 23.3584 122.928 23.998 122.287 25.4157L124.126 26.1615C124.522 25.4157 125.25 25.1738 126.019 25.1738C127.094 25.1738 128.185 25.7986 128.201 26.9019V27.043C127.826 26.8333 127.024 26.5229 126.036 26.5229C124.056 26.5229 122.037 27.5778 122.037 29.5464C122.037 31.347 123.66 32.5066 125.483 32.5066C126.878 32.5066 127.647 31.8979 128.13 31.1898H128.201V32.2285H130.203V27.0739C130.203 24.6914 128.364 23.3584 125.982 23.3584ZM125.732 30.7221C125.054 30.7221 124.11 30.397 124.11 29.584C124.11 28.5439 125.287 28.1448 126.307 28.1448C127.219 28.1448 127.647 28.3397 128.201 28.5963C128.039 29.8406 126.932 30.7221 125.732 30.7221V30.7221ZM137.494 23.6527L135.112 29.4778H135.042L132.579 23.6527H130.344L134.044 31.7931L131.933 36.3229H134.099L139.8 23.6527H137.494V23.6527ZM118.815 32.25H120.893V18.8125H118.815V32.25Z" fill="white"/>
<defs>
<linearGradient id="paint0_linear_209_3511" x1="24.2219" y1="33.6369" x2="6.1907" y2="15" gradientUnits="userSpaceOnUse">
<stop stop-color="#00A0FF"/>
<stop offset="0.0066" stop-color="#00A1FF"/>
<stop offset="0.2601" stop-color="#00BEFF"/>
<stop offset="0.5122" stop-color="#00D2FF"/>
<stop offset="0.7604" stop-color="#00DFFF"/>
<stop offset="1" stop-color="#00E3FF"/>
</linearGradient>
<linearGradient id="paint1_linear_209_3511" x1="37.5938" y1="21.4983" x2="10.7084" y2="21.4983" gradientUnits="userSpaceOnUse">
<stop stop-color="#FFE000"/>
<stop offset="0.4087" stop-color="#FFBD00"/>
<stop offset="0.7754" stop-color="#FFA500"/>
<stop offset="1" stop-color="#FF9C00"/>
</linearGradient>
<linearGradient id="paint2_linear_209_3511" x1="27.5856" y1="19.0316" x2="3.13377" y2="-6.24162" gradientUnits="userSpaceOnUse">
<stop stop-color="#FF3A44"/>
<stop offset="1" stop-color="#C31162"/>
</linearGradient>
<linearGradient id="paint3_linear_209_3511" x1="8.10815" y1="42.8106" x2="19.027" y2="31.5251" gradientUnits="userSpaceOnUse">
<stop stop-color="#32A071"/>
<stop offset="0.0685" stop-color="#2DA771"/>
<stop offset="0.4762" stop-color="#15CF74"/>
<stop offset="0.8009" stop-color="#06E775"/>
<stop offset="1" stop-color="#00F076"/>
</linearGradient>
</defs>
</svg>
