<svg id="Capa_1" data-name="Capa 1" xmlns="http://www.w3.org/2000/svg" viewBox="0 0 372.37 346.06"><defs><style>.cls-1{fill:#c6af09;}.cls-2{fill:#dd6105;}</style></defs><path class="cls-1" d="M368.71,219.93a28.44,28.44,0,0,0-38.79-10.84l-83,46.75a4.52,4.52,0,0,0-2.16,2.85c-1.45,5.91-4.86,14.17-12.87,19.91C223,285,211,286.29,196.4,282.54l-.25-.07-47.9-14.87a5.5,5.5,0,0,1,1.63-10.75,5.76,5.76,0,0,1,1.64.24l47.64,14.8.23.06c11.24,2.84,20,2.05,26.06-2.28,7.64-5.48,9-15.12,9.14-16.53a.66.66,0,0,0,0-.14v-.11a25.18,25.18,0,0,0-18.24-26.09l-.21-.06c-.35-.12-35.59-11.63-58-18a72.55,72.55,0,0,0-19.31-2.36,87.17,87.17,0,0,0-54.55,19L1.67,292.16a4.5,4.5,0,0,0-.76,6.21l44.71,59.06a4.51,4.51,0,0,0,3,1.75c.2,0,.4,0,.6,0a4.51,4.51,0,0,0,2.75-.94l57.59-44.34a5.57,5.57,0,0,1,4.62-1l93,22a28.7,28.7,0,0,0,20.52-2.9l130.16-73.3A28.51,28.51,0,0,0,368.71,219.93Z" transform="translate(0 -13.15)"/><path class="cls-2" d="M317,13.15H147a10,10,0,0,0-10,10V68.66a10,10,0,0,0,10,10h3.74v96.62a10,10,0,0,0,10,10H303.24a10,10,0,0,0,10-10V78.66H317a10,10,0,0,0,10-10V23.15A10,10,0,0,0,317,13.15Zm-64,89.27H210.94a8,8,0,0,1,0-16H253a8,8,0,0,1,0,16Zm54-43.76H157V33.15H307V58.66Z" transform="translate(0 -13.15)"/></svg>