<svg id="Layer_1" data-name="Layer 1" xmlns="http://www.w3.org/2000/svg" viewBox="0 0 330 330"><defs><style>.cls-1{fill:#0e2ea5;}</style></defs><path class="cls-1" d="M15,130H30V230H60V130h50V230h30V130h50V230h30V130h50V230h30V130h15a15,15,0,0,0,8.32-27.48l-150-100a15,15,0,0,0-16.64,0l-150,100A15,15,0,0,0,15,130Z" transform="translate(0 0)"/><path class="cls-1" d="M315,260H15A15,15,0,0,0,0,275v40a15,15,0,0,0,15,15H315a15,15,0,0,0,15-15V275A15,15,0,0,0,315,260Z" transform="translate(0 0)"/></svg>