<?xml version="1.0" encoding="utf-8"?>
<!-- Generator: Adobe Illustrator 25.4.1, SVG Export Plug-In . SVG Version: 6.00 Build 0)  -->
<svg version="1.1" id="Layer_1" xmlns="http://www.w3.org/2000/svg" xmlns:xlink="http://www.w3.org/1999/xlink" x="0px" y="0px"
	 viewBox="0 0 500 500" style="enable-background:new 0 0 500 500;" xml:space="preserve">
<style type="text/css">
	.st0{display:none;fill:#606161;}
	.st1{font-family:'ArialMT';}
	.st2{font-size:27.1397px;}
	.st3{letter-spacing:13;}
	.st4{fill:#20686A;}
	.st5{fill:#225455;}
</style>
<g>
	<g id="P_LOGO_00000093863540642522450220000001460661281385543595_">
		<g>
			<text transform="matrix(1 0 0 1 135.7281 376.2915)" class="st0 st1 st2 st3">ERP Software</text>
			<g>
				<path class="st4" d="M134.7,283.9h43.7v13h-26.6v6.3h24.2v13h-24.2v6.4H179v13h-44.3V283.9z"/>
				<path class="st4" d="M215.2,335.6l-6.2-13.4h-6.4v13.4h-17.1v-51.6h25c7,0,12.5,1.6,16.3,4.8c3.8,3.2,5.7,7.8,5.7,13.7
					c0,3.7-0.7,7-2.1,9.8c-1.4,2.8-3.4,5-6.1,6.6l10.2,16.8H215.2z M202.6,309.2h7.9c1.9,0,3.3-0.6,4.3-1.7c1-1.1,1.5-2.6,1.5-4.6
					c0-1.9-0.5-3.4-1.5-4.5c-1-1.1-2.4-1.6-4.3-1.6h-7.9V309.2z"/>
				<path class="st4" d="M268.2,297.5c-3.4-1.2-6.2-1.8-8.4-1.8c-2.1,0-3.2,0.8-3.2,2.3c0,1.2,0.7,2.1,2,2.7
					c1.3,0.6,3.5,1.4,6.4,2.1c3.7,1,6.7,2.1,9.2,3.1c2.4,1,4.6,2.7,6.4,4.9c1.8,2.2,2.7,5.2,2.7,8.8c0,3.7-1,6.9-2.9,9.4
					c-1.9,2.5-4.6,4.4-7.8,5.6c-3.3,1.2-7,1.8-11,1.8c-4.6,0-9.2-0.8-13.8-2.2c-4.6-1.5-8.7-3.5-12-6.2l6.3-12.9
					c2.6,2.3,5.9,4.2,9.8,5.8c3.9,1.6,7.2,2.4,9.9,2.4c1.3,0,2.3-0.2,3-0.7c0.7-0.5,1.1-1.2,1.1-2.2c0-1.2-0.7-2.1-2.1-2.8
					c-1.4-0.7-3.6-1.4-6.6-2.1c-3.6-0.9-6.7-1.9-9.1-2.9s-4.5-2.6-6.3-4.7c-1.8-2.1-2.7-4.9-2.7-8.5c0-3.4,0.9-6.4,2.7-9
					c1.8-2.6,4.4-4.6,7.7-5.9c3.3-1.4,7.2-2.1,11.6-2.1c4,0,8,0.6,12,1.7c4,1.1,7.5,2.6,10.4,4.5l-6.2,13
					C274.8,300.2,271.7,298.8,268.2,297.5z"/>
				<path class="st4" d="M306.4,320.2c1.5,1.6,3.2,2.4,5.3,2.4c2,0,3.7-0.8,5-2.3s2-3.6,2-6.1v-30.2h17.1v30.2c0,4.5-1,8.5-3,11.9
					c-2,3.4-4.8,6.1-8.4,7.9c-3.6,1.9-7.9,2.8-12.7,2.8s-9.1-0.9-12.9-2.8c-3.7-1.9-6.6-4.5-8.6-7.9c-2-3.4-3.1-7.4-3.1-11.9v-30.2
					h17.1v30.2C304.2,316.6,304.9,318.6,306.4,320.2z"/>
				<path class="st4" d="M342.4,283.9h17.1v51.6h-17.1V283.9z"/>
				<path class="st4" d="M363.6,283.9H410v13.5h-14.7v38.2h-17.1v-38.2h-14.7V283.9z"/>
				<path class="st4" d="M414.1,283.9h43.7v13h-26.6v6.3h24.2v13h-24.2v6.4h27.3v13h-44.3V283.9z"/>
			</g>
			<g>
				<g>
					<path class="st5" d="M149,114.9H64.3v1.5c0,28.9,23.4,52.3,52.3,52.3h33.1c11.7,0,22,8.7,23.1,20.3
						c1.3,13.4-9.3,24.7-22.4,24.7H119v53.8h31.3c41.6,0,75.6-33.5,76.3-75C227.4,149.8,191.7,114.9,149,114.9z"/>
				</g>
				<g>
					<path class="st4" d="M85.6,116.4v-1.5H64.3v1.5c0,28.9,23.4,52.3,52.3,52.3h21.3C109,168.7,85.6,145.3,85.6,116.4z"/>
				</g>
				<path class="st4" d="M149.2,213.7h-30.3c-30.2,0-54.7,24.5-54.7,54.7v38.9c-0.6,23.2-12.4,43.6-30.2,56h30.3
					c30.2,0,54.7-24.5,54.7-54.7v-38.9C119.6,246.5,131.4,226.1,149.2,213.7z"/>
			</g>
		</g>
		<g>
			<path class="st4" d="M285.1,160.6L285.1,160.6c0-10.4,8.4-18.8,18.8-18.8h36.2l0,0c0,10.4-8.4,18.8-18.8,18.8H285.1z"/>
			<path class="st4" d="M285.1,214.9L285.1,214.9c0-10.4,8.4-18.8,18.8-18.8h36.2v0c0,10.4-8.4,18.8-18.8,18.8H285.1z"/>
			<path class="st5" d="M274.3,188.6H258c0-10.4,8.4-18.8,18.8-18.8h48.5v0c0,10.4-8.4,18.8-18.8,18.8H274.3z"/>
		</g>
	</g>
</g>
</svg>
