<?xml version="1.0" encoding="utf-8"?>
<!-- Generator: Adobe Illustrator 25.4.1, SVG Export Plug-In . SVG Version: 6.00 Build 0)  -->
<svg version="1.1" id="Layer_1" xmlns="http://www.w3.org/2000/svg" xmlns:xlink="http://www.w3.org/1999/xlink" x="0px" y="0px"
	 viewBox="0 0 24 24" style="enable-background:new 0 0 24 24;" xml:space="preserve">
<style type="text/css">
	.st0{fill:#E94560;}
</style>
<g>
	<path class="st0" d="M4,21c0,0.6,0.4,1,1,1h14c0.6,0,1-0.4,1-1V7c0-0.3-0.1-0.5-0.3-0.7l-4-4C15.5,2.1,15.3,2,15,2H5
		C4.4,2,4,2.4,4,3V21z M6,4h8.6L18,7.4V20H6V4z"/>
	<path class="st0" d="M14.6,13.6c0.9-2,0-4.4-2-5.4s-4.4,0-5.4,2s0,4.4,2,5.4c1.4,0.6,2.9,0.4,4.1-0.5l2,1.6
		c0.4,0.4,1.1,0.3,1.4-0.1c0.4-0.4,0.3-1.1-0.1-1.4c0,0,0,0,0,0L14.6,13.6z M11,14c-1.1,0-2-0.9-2-2s0.9-2,2-2s2,0.9,2,2
		S12.1,14,11,14z"/>
</g>
</svg>
