<svg width="414" height="414" viewBox="0 0 414 414" fill="none" xmlns="http://www.w3.org/2000/svg">
<path d="M399.719 293.48C399.137 291.136 398.364 288.965 397.427 286.943C389.901 270.692 372.037 266.025 358.932 256.487C353.339 252.417 348.843 246.277 348.43 239.372C347.94 231.173 353.053 223.862 357.205 216.776C362.512 207.722 366.606 197.712 367.207 187.235C367.808 176.757 364.558 165.749 356.978 158.492C348.237 150.125 335.239 147.869 323.15 148.382C292.39 149.688 264.022 162.623 239.653 135.936C222.385 117.025 215.109 85.2228 197.26 66.4346C168.931 36.615 119.944 41.6741 89.1893 69.0147C61.4033 93.7164 52.3947 133.013 62.2984 168.27C68.693 191.035 76.3827 214.164 60.5298 235.632C46.9638 254.004 25.4996 266.253 17.5731 288.618C9.88845 310.302 12.6581 337.119 31.072 352.644C40.5733 360.654 52.7457 364.779 64.8809 367.456C64.9712 367.476 65.0597 367.493 65.15 367.513H311.596C350.447 361.66 412.039 343.1 399.719 293.48Z" fill="#F2F8F9" fill-opacity="0.25"/>
<path d="M109.413 365.299C113.133 366.047 116.861 366.749 120.596 367.417H124.502L109.413 365.299Z" fill="#BFD2FF"/>
<path d="M284.151 364.115L88.592 363.181C84.1167 363.16 80.5066 359.515 80.5281 355.041L81.0514 245.316C81.0729 240.842 84.7178 237.231 89.1923 237.253L284.751 238.186C289.226 238.207 292.836 241.852 292.815 246.327L292.292 356.051C292.27 360.525 288.625 364.135 284.151 364.115Z" fill="#63738F"/>
<path d="M187.93 240.256C187.927 240.791 187.492 241.223 186.956 241.22C186.421 241.218 185.989 240.782 185.991 240.247C185.994 239.711 186.429 239.28 186.965 239.282C187.501 239.284 187.932 239.721 187.93 240.256Z" fill="#333842"/>
<path d="M307.928 364.388L64.8127 363.228C64.7862 368.81 69.2897 373.358 74.8721 373.384L297.772 374.447C303.355 374.474 307.902 369.97 307.928 364.388Z" fill="#3E4D66"/>
<path d="M280.859 360.145L91.9214 359.244C88.4247 359.227 85.6038 356.379 85.6203 352.882L86.1179 248.514C86.1345 245.018 88.9828 242.197 92.4795 242.213L281.417 243.115C284.913 243.131 287.734 245.98 287.718 249.476L287.22 353.844C287.204 357.342 284.355 360.163 280.859 360.145Z" fill="#FEFEFF"/>
<path d="M323.804 138.576V145.514H351.161V138.576H323.804Z" fill="#AACCCD"/>
<path d="M323.804 127.85V134.788H364.549V127.85H323.804Z" fill="#80ACAD"/>
<path d="M323.806 117.124V124.062H383.027V117.124H323.806Z" fill="#19686A"/>
<path d="M323.806 106.398V113.336H357.126V106.398H323.806Z" fill="#319598"/>
<path d="M322.905 100.217V150.411H387.379" stroke="#333842" stroke-width="0.6764" stroke-miterlimit="10" stroke-linecap="round"/>
<path d="M386.7 160.447H344.656V164.402H386.7V160.447Z" fill="#DBE7E8"/>
<path d="M386.7 167.885H344.656V171.839H386.7V167.885Z" fill="#DBE7E8"/>
<path d="M386.7 175.322H344.656V179.293H386.7V175.322Z" fill="#DBE7E8"/>
<path d="M341.094 160.447H322.905V179.293H341.094V160.447Z" fill="#DBE7E8"/>
<path d="M386.701 182.76H322.905V186.715H386.701V182.76Z" fill="#DBE7E8"/>
<path d="M386.701 190.198H322.905V194.153H386.701V190.198Z" fill="#DBE7E8"/>
<path d="M238.12 77.5254C236.818 77.7821 235.562 78.1614 234.365 78.6532C234.438 78.7459 234.517 78.8295 234.581 78.9314C235.562 80.4996 235.086 82.5671 233.517 83.5483C231.948 84.5295 229.881 84.0534 228.9 82.4852C228.83 82.3742 228.785 82.2566 228.73 82.1415C227.74 83.006 226.835 83.9648 226.029 85.0031C226.145 85.0495 226.264 85.0851 226.376 85.1447C228.011 86.0124 228.632 88.041 227.764 89.6747C226.896 91.3092 224.868 91.9302 223.234 91.0624C223.106 90.9945 222.995 90.9076 222.88 90.8264C222.453 92.0643 222.144 93.3543 221.964 94.6849C222.101 94.6626 222.236 94.6328 222.379 94.6278C224.227 94.5624 225.78 96.0081 225.845 97.857C225.911 99.7059 224.465 101.258 222.616 101.324C222.454 101.33 222.297 101.31 222.141 101.293C222.397 102.625 222.781 103.908 223.282 105.131C223.403 105.029 223.52 104.926 223.658 104.84C225.227 103.858 227.294 104.334 228.275 105.903C229.256 107.473 228.78 109.539 227.212 110.52C227.063 110.614 226.905 110.682 226.749 110.749C227.632 111.766 228.613 112.694 229.678 113.516C229.734 113.356 229.79 113.197 229.871 113.043C230.739 111.409 232.767 110.788 234.401 111.656C236.035 112.523 236.657 114.552 235.789 116.186C235.701 116.351 235.593 116.499 235.484 116.642C236.748 117.076 238.067 117.389 239.426 117.566C239.392 117.394 239.361 117.221 239.354 117.04C239.289 115.191 240.735 113.639 242.584 113.573C244.433 113.508 245.986 114.954 246.051 116.802C246.058 116.991 246.039 117.174 246.015 117.356C247.361 117.091 248.657 116.694 249.891 116.18C249.775 116.048 249.662 115.914 249.566 115.762C248.585 114.193 249.061 112.126 250.629 111.145C252.197 110.164 254.265 110.64 255.246 112.209C255.342 112.363 255.413 112.524 255.482 112.686C256.493 111.796 257.414 110.809 258.23 109.737C258.074 109.682 257.919 109.629 257.77 109.549C256.135 108.681 255.514 106.653 256.382 105.019C257.25 103.385 259.278 102.764 260.912 103.631C261.061 103.711 261.192 103.809 261.324 103.906C261.745 102.654 262.046 101.349 262.215 100.005C262.067 100.03 261.921 100.06 261.767 100.066C259.918 100.132 258.365 98.6858 258.3 96.8369C258.234 94.988 259.68 93.4355 261.53 93.3701C261.68 93.3643 261.825 93.385 261.971 93.399C261.705 92.0825 261.314 90.814 260.809 89.606C260.703 89.6904 260.605 89.7815 260.487 89.8544C258.919 90.8355 256.852 90.3594 255.87 88.7904C254.889 87.2222 255.365 85.1546 256.933 84.1735C257.049 84.1014 257.171 84.0534 257.291 83.9971C256.42 83.0118 255.456 82.1126 254.411 81.3127C254.367 81.4253 254.332 81.5404 254.274 81.6497C253.406 83.2842 251.378 83.9052 249.744 83.0374C248.11 82.1697 247.488 80.1411 248.357 78.5075C248.417 78.3957 248.494 78.3005 248.563 78.1978C247.337 77.7838 246.06 77.4865 244.745 77.3135C244.761 77.4261 244.788 77.5354 244.792 77.6521C244.857 79.5011 243.411 81.0536 241.562 81.119C239.714 81.1844 238.161 79.7387 238.096 77.8898C238.092 77.7656 238.111 77.6472 238.12 77.5254ZM241.582 83.7975C249.117 83.5309 255.442 89.423 255.709 96.9586C255.975 104.494 250.083 110.819 242.548 111.086C235.012 111.353 228.687 105.461 228.42 97.9249C228.154 90.3893 234.046 84.0642 241.582 83.7975Z" fill="#7FB6B7"/>
<path d="M114.684 159.279L114.684 65.3196L36.6886 65.3196L36.6886 159.279H114.684Z" fill="#DBE7E8"/>
<path d="M61.2275 102.403H52.526V122.991H61.2275V102.403Z" fill="#319598"/>
<path d="M74.678 92.3271H65.9766V122.99H74.678V92.3271Z" fill="#FEFEFF"/>
<path d="M88.1318 78.4226H79.4303V122.991H88.1318V78.4226Z" fill="#80ACAD"/>
<path d="M101.584 97.9153H92.8826V122.991H101.584V97.9153Z" fill="#80ACAD"/>
<path d="M47.4049 79.2539V123.214H104.61" stroke="#333842" stroke-width="0.75" stroke-miterlimit="10" stroke-linecap="round"/>
<path d="M104.844 131.594H46.2783V137.202H104.844V131.594Z" fill="#FEFEFF"/>
<path d="M104.844 141.876H46.2783V147.485H104.844V141.876Z" fill="#FEFEFF"/>
<path d="M156.399 184.323L145.597 206.381L125.968 181.925L108.295 204.571L95.2627 190.489L93.2772 192.327L108.471 208.745L125.998 186.285L146.153 211.396L158.422 186.346L156.399 184.323Z" fill="white"/>
<path d="M149.494 208.889C149.494 206.971 147.939 205.416 146.02 205.416C144.102 205.416 142.546 206.971 142.546 208.889C142.546 210.807 144.101 212.362 146.02 212.362C147.939 212.362 149.494 210.807 149.494 208.889Z" fill="#19686A"/>
<path d="M160.972 184.331C160.972 182.413 159.417 180.857 157.498 180.857C155.58 180.857 154.024 182.412 154.024 184.331C154.024 186.25 155.58 187.805 157.498 187.805C159.416 187.805 160.972 186.25 160.972 184.331Z" fill="#319598"/>
<path d="M125.852 187.805C127.77 187.805 129.325 186.249 129.325 184.331C129.325 182.413 127.77 180.858 125.852 180.858C123.934 180.858 122.378 182.413 122.378 184.331C122.378 186.249 123.934 187.805 125.852 187.805Z" fill="#333842"/>
<path d="M108.798 209.718C110.716 209.718 112.272 208.162 112.272 206.243C112.272 204.325 110.716 202.769 108.798 202.769C106.879 202.769 105.323 204.325 105.323 206.243C105.323 208.162 106.879 209.718 108.798 209.718Z" fill="#AACCCD"/>
<path d="M98.4973 192.067C98.4973 190.149 96.9424 188.594 95.0231 188.594C93.1037 188.594 91.5496 190.149 91.5496 192.067C91.5496 193.986 93.1046 195.541 95.0231 195.541C96.9415 195.541 98.4973 193.986 98.4973 192.067Z" fill="#80ACAD"/>
<path d="M84.8698 175.859V222.248H162.957" stroke="#333842" stroke-width="0.75" stroke-miterlimit="10" stroke-linecap="round"/>
<path d="M131.653 347.374C146.275 345.026 156.225 331.268 153.876 316.645C151.527 302.023 137.769 292.074 123.147 294.423C108.524 296.772 98.575 310.529 100.924 325.152C103.273 339.774 117.031 349.723 131.653 347.374Z" fill="#BFC5D4"/>
<path d="M126.764 321.329L105.849 314.034C105.031 316.379 104.614 318.845 104.614 321.329C104.614 333.48 114.613 343.478 126.764 343.478C130.779 343.478 134.718 342.387 138.161 340.321L126.764 321.329Z" fill="#19686A"/>
<path d="M127.91 320.916L139.454 339.82C142.693 337.842 145.37 335.064 147.228 331.753C149.085 328.443 150.06 324.71 150.06 320.915H127.91V320.916Z" fill="#DBE7E8"/>
<path d="M128.037 319.848L150.185 319.542C150.144 316.528 149.487 313.555 148.256 310.803C147.025 308.052 145.245 305.58 143.026 303.541L128.037 319.848Z" fill="#FEFEFF"/>
<path d="M158.442 276.979H96.359V280.416H158.442V276.979Z" fill="#333842"/>
<path d="M158.442 270.189H96.359V273.626H158.442V270.189Z" fill="#333842"/>
<path d="M158.442 263.4H96.359V266.837H158.442V263.4Z" fill="#333842"/>
<path d="M158.442 256.611H96.359V260.048H158.442V256.611Z" fill="#333842"/>
<path d="M158.442 283.28H96.359V286.717H158.442V283.28Z" fill="#333842"/>
<path d="M279.803 349.581H172.169V353.018H279.803V349.581Z" fill="#333842"/>
<path d="M279.803 342.792H172.169V346.229H279.803V342.792Z" fill="#333842"/>
<path d="M279.803 336.002H172.169V339.439H279.803V336.002Z" fill="#333842"/>
<path d="M166.71 115.045C180.775 112.353 189.995 98.7676 187.303 84.7019C184.611 70.6363 171.026 61.4164 156.96 64.1086C142.895 66.8009 133.675 80.3859 136.367 94.4515C139.059 108.517 152.644 117.737 166.71 115.045Z" fill="#DBE7E8"/>
<path d="M161.217 89.9663L140.994 82.9126C140.203 85.1805 139.799 87.5643 139.799 89.9663C139.799 101.716 149.467 111.383 161.217 111.383C165.098 111.383 168.909 110.328 172.237 108.331L161.217 89.9663Z" fill="#19686A"/>
<path d="M162.328 89.5665L173.489 107.845C176.621 105.933 179.21 103.247 181.006 100.046C182.801 96.8446 183.745 93.2362 183.745 89.5657L162.328 89.5665Z" fill="#319598"/>
<path d="M162.451 88.5358L183.866 88.2393C183.826 85.3256 183.191 82.45 182.001 79.7896C180.811 77.1292 179.09 74.7396 176.944 72.7673L162.451 88.5358Z" fill="#FEFEFF"/>
<path d="M309.415 120.227H171.979V327.649H309.415V120.227Z" fill="#DBE7E8"/>
<path d="M224.933 220.145H215.159V261.307H224.933V220.145Z" fill="#AACCCD"/>
<path d="M266.935 200.002H257.16V261.308H266.935V200.002Z" fill="#19686A"/>
<path d="M287.936 172.203H278.161V261.308H287.936V172.203Z" fill="#319598"/>
<path d="M192.666 216.854C213.707 211.354 252.154 191.078 269.562 171.669" stroke="#333842" stroke-width="0.75" stroke-miterlimit="10" stroke-linecap="round"/>
<path d="M270.97 170.047L269.855 173.122L269.42 171.759L268.021 171.461L270.97 170.047Z" fill="#333842"/>
<path d="M245.934 211.174H236.16V261.307H245.934V211.174Z" fill="#FEFEFF"/>
<path d="M203.933 224.908H194.158V261.307H203.933V224.908Z" fill="#80ACAD"/>
<path d="M296.716 261.315H186.045V167.763" stroke="#333842" stroke-width="0.75" stroke-miterlimit="10" stroke-linecap="round"/>
<path d="M298.074 134.81H186.059V141.558H298.074V134.81Z" fill="#FEFEFF"/>
<path d="M274.392 145.714H209.742V152.462H274.392V145.714Z" fill="#FEFEFF"/>
<path d="M298.089 269.965H186.045V276.167H298.089V269.965Z" fill="#FEFEFF"/>
<path d="M298.089 281.336H186.045V287.539H298.089V281.336Z" fill="#FEFEFF"/>
<path d="M298.089 292.708H186.045V298.911H298.089V292.708Z" fill="#FEFEFF"/>
<path d="M235.797 304.996H186.045V311.199H235.797V304.996Z" fill="#FEFEFF"/>
<path d="M309.703 374.03C311.476 373.852 313.231 373.507 315.002 373.327C316.498 373.174 318 373.089 319.49 372.868C320.545 372.712 321.639 372.5 322.65 372.078C323.289 371.812 322.879 370.136 322.787 369.668C322.567 368.554 322.576 367.336 322.618 366.201C320.916 366.17 319.212 366.137 317.515 366.065C317.199 366.052 316.875 366.04 316.578 366.156C316.182 366.309 315.885 366.665 315.579 366.98C314.244 368.352 312.498 369.098 310.857 369.974C309.216 370.851 307.562 371.979 306.731 373.771C306.666 373.912 306.608 374.077 306.619 374.229C307.648 374.199 308.677 374.133 309.703 374.03Z" fill="#333842"/>
<path d="M340.304 277.379C340.286 277.358 340.268 277.336 340.251 277.315C338.185 274.849 334.845 273.783 331.906 274.653C324.18 276.938 324.168 288.807 323.368 295.767C322.52 303.13 321.64 310.488 320.726 317.84C318.989 331.812 317.814 352.2 315.839 366.133C317.02 366.792 318.171 366.859 319.515 367.028C321.85 367.319 322.627 367.106 323.391 366.518C325.666 353.849 330.854 335.102 333.446 322.508C334.808 315.887 335.809 312.687 337.258 306.088C338.34 301.161 338.747 296.076 340.064 291.204C340.664 288.988 342.164 286.908 342.416 284.695C342.71 282.101 341.89 279.312 340.304 277.379Z" fill="#4F5D7A"/>
<path d="M331.189 332.383L328.244 331.724" stroke="#333842" stroke-width="0.75" stroke-miterlimit="10" stroke-linecap="round" stroke-linejoin="round"/>
<path d="M331.158 332.375L327.615 334.018" stroke="#333842" stroke-width="0.75" stroke-miterlimit="10" stroke-linecap="round" stroke-linejoin="round"/>
<path d="M340.139 373.339C340.179 373.352 340.223 373.36 340.267 373.368C340.607 373.373 340.947 373.385 341.287 373.4C341.374 373.4 341.46 373.405 341.544 373.412C341.95 373.433 342.356 373.458 342.762 373.49C345.926 373.74 349.163 374.307 352.285 374.374C353.377 374.397 354.524 374.366 355.514 373.98C358.068 372.983 354.955 371.676 353.942 371.098C352.878 370.491 351.956 369.92 350.82 369.411C349.379 368.767 347.995 367.972 346.69 367.04C344.868 367.485 342.993 367.667 341.128 367.576C340.172 367.53 338.749 372.892 340.139 373.339Z" fill="#333842"/>
<path d="M349.586 291.348C349.138 288.233 346.804 277.485 343.264 276.9C340.942 276.516 337.963 277.366 336.351 279.325C335.1 280.845 334.419 282.853 334.12 284.88C333.618 288.286 333.856 291.906 333.988 295.338C334.197 300.779 335.298 311.058 335.298 311.058C335.298 311.058 340.666 356.228 340.271 367.377C342.325 370.229 348.451 367.569 348.478 367.244C349.195 358.466 349.181 338.612 349.351 331.818C349.536 324.504 350.634 298.616 349.586 291.348Z" fill="#616E87"/>
<path d="M334.96 308.298C334.577 302.784 334.195 297.269 333.813 291.754" stroke="#333842" stroke-width="0.75" stroke-miterlimit="10"/>
<path d="M349.491 290.751C348.869 287.053 346.604 277.452 343.263 276.9C342.258 276.734 341.131 276.8 340.043 277.086C337.966 274.787 334.75 273.811 331.905 274.653C326.545 276.237 324.899 282.434 324.126 288.405C326.979 290.404 330.412 291.466 333.857 291.957V291.959C333.927 291.969 333.996 291.974 334.065 291.984C334.434 292.034 334.802 292.078 335.171 292.116C335.297 292.129 335.424 292.142 335.551 292.153C335.985 292.193 336.418 292.227 336.849 292.251C336.918 292.255 336.985 292.257 337.054 292.26C337.434 292.279 337.813 292.292 338.189 292.301C338.312 292.303 338.435 292.306 338.557 292.307C338.972 292.312 339.384 292.314 339.791 292.307V292.306C339.808 292.306 339.826 292.306 339.845 292.306C343.136 292.249 346.364 291.702 349.491 290.751Z" fill="#3C4966"/>
<path d="M341.351 234.56C341.385 234.873 341.407 235.183 341.423 235.481C341.486 236.672 341.55 237.863 341.614 239.054C341.678 240.249 341.88 241.53 341.806 242.723C341.7 244.435 341.333 246.076 339.738 246.912C338.743 247.402 337.567 247.36 336.561 246.926C335.784 246.591 334.799 246.063 334.492 245.194C334.291 244.625 334.292 244.002 334.295 243.395C334.305 241.407 334.261 239.417 334.342 237.429C334.394 236.15 334.299 234.769 334.85 233.587C335.604 231.966 337.542 230.374 339.342 231.082C340.758 231.64 341.192 233.131 341.351 234.56Z" fill="#F7B699"/>
<path d="M339.231 239.327C340.347 238.129 341.079 236.627 341.388 235.028C341.377 234.871 341.369 234.719 341.352 234.56C341.193 233.131 340.759 231.64 339.343 231.083C337.544 230.375 335.606 231.966 334.851 233.588C334.301 234.769 334.395 236.15 334.343 237.43C334.299 238.505 334.292 239.583 334.294 240.659C335.941 241.249 338.075 240.568 339.231 239.327Z" fill="#C46E58"/>
<path d="M349.375 285.793L346.953 273.502L347.783 245.89C347.562 245.893 347.902 243.445 347.153 242.969C345.995 242.232 342.281 241.71 341.811 241.588C341.816 242.109 341.811 242.591 341.692 243.035C341.554 243.553 340.654 244.529 340.006 245.012C338.045 246.476 335.57 246.338 334.515 243.301C334.374 242.897 334.308 242.165 334.29 241.696C333.268 241.828 331.618 242.262 330.442 242.659C329.012 243.143 328.014 244.437 327.908 245.943L326.635 273.432L323.384 283.792C331.236 290.093 340.293 290.036 349.375 285.793Z" fill="white"/>
<path d="M335.998 275.554C340.893 273.032 345.054 269.102 347.852 264.36" stroke="#333842" stroke-width="0.2994" stroke-miterlimit="10" stroke-linecap="round"/>
<path d="M333.964 286.051C339.25 282.39 343.54 277.305 346.259 271.479" stroke="#333842" stroke-width="0.2994" stroke-miterlimit="10" stroke-linecap="round"/>
<path d="M335.985 247.2C337.385 247.945 339.171 247.906 340.538 247.103" stroke="#333842" stroke-width="0.2994" stroke-miterlimit="10" stroke-linecap="round"/>
<path d="M325.477 246.491C321.536 251.074 317.95 261.083 317.577 267.052C317.484 268.534 317.758 270.085 318.628 271.288C319.497 272.491 321.035 273.266 322.489 272.968C324.027 272.652 325.113 271.288 325.892 269.925C327.154 267.716 328.993 262.128 329.491 259.718C330.049 257.016 331.266 254.473 331.751 251.714C332.052 249.998 333.662 241.945 329.734 243.001C329.069 243.18 328.497 243.604 327.967 244.045C327.062 244.792 326.233 245.613 325.477 246.491Z" fill="#6C7995"/>
<path d="M325.933 291.245C326.456 291.511 326.992 291.745 327.532 291.965C329.273 278.755 334.027 241.813 334.024 241.712C332.999 241.84 331.602 242.237 330.411 242.621C328.958 243.089 327.902 244.353 327.734 245.84L326.584 261.752L325.003 276.643L321.275 287.889C322.636 289.226 324.193 290.361 325.933 291.245Z" fill="#6C7995"/>
<path d="M334.025 241.711L329.536 245.505L332.066 246.061L329.289 252.17L331.412 262.22L334.025 241.711Z" fill="#ABC0D4"/>
<path d="M329.473 247.858C329.473 247.858 326.999 254.514 326.954 257.669C326.928 259.49 325.24 275.229 325.24 275.229" stroke="#333842" stroke-width="0.2994" stroke-miterlimit="10"/>
<path d="M327.982 269.003C327.982 271.917 325.62 274.279 322.706 274.279C319.792 274.279 317.43 271.917 317.43 269.003C317.43 266.089 319.792 263.727 322.706 263.727C325.62 263.727 327.982 266.089 327.982 269.003Z" fill="#6C7995"/>
<path d="M321.104 264.357C322.736 263.869 324.608 264.283 325.883 265.413C327.157 266.543 327.791 268.352 327.501 270.031" stroke="#333842" stroke-width="0.2994" stroke-miterlimit="10"/>
<path d="M323.826 263.113C324.951 263.703 325.858 264.697 326.345 265.871" stroke="#333842" stroke-width="0.2994" stroke-miterlimit="10"/>
<path d="M346.223 292.761C348.977 292.143 349.521 291.743 352.157 290.638L349.555 276.911L347.962 245.787C347.737 245.789 347.98 243.382 347.207 242.92C346.112 242.265 343.127 241.799 342.289 241.637V293.459C343.62 293.286 344.937 293.05 346.223 292.761Z" fill="#6C7995"/>
<path d="M351.088 246.972C353.067 249.888 354.246 253.719 355.458 257.014C356.657 260.278 358.709 264.548 358.63 268.079C358.601 269.398 358.078 270.757 357.02 271.545C355.918 272.366 354.41 272.451 353.074 272.133C349.112 271.19 348.014 267.805 346.775 264.451C345.266 260.369 344.22 255.798 343.97 251.454C343.867 249.669 343.181 241.268 347.112 242.861C347.779 243.131 348.317 243.638 348.813 244.156C349.656 245.036 350.414 245.979 351.088 246.972Z" fill="#6C7995"/>
<path d="M347.138 265.58C346.501 263.383 345.864 261.185 345.228 258.988" stroke="#333842" stroke-width="0.2994" stroke-miterlimit="10"/>
<path d="M345.984 261.839C345.536 261.127 345.088 260.415 344.64 259.703" stroke="#333842" stroke-width="0.2994" stroke-miterlimit="10"/>
<path d="M342.287 241.63L346.271 245.952L343.691 246.189L345.688 252.595L342.333 262.304L342.287 241.63Z" fill="#ABC0D4"/>
<path d="M355.066 273.072L348.971 274.921C346.417 275.696 343.719 274.253 342.945 271.7C342.17 269.146 343.612 266.448 346.166 265.674L352.26 263.825C354.814 263.05 357.512 264.492 358.287 267.046C359.062 269.599 357.62 272.298 355.066 273.072Z" fill="#6C7995"/>
<path d="M343.26 266.845C345.499 266.031 347.738 265.218 349.977 264.405C351.899 263.707 353.976 263.234 355.944 264.101" stroke="#333842" stroke-width="0.2994" stroke-miterlimit="10" stroke-linecap="round"/>
<path d="M344.127 259.702H327.144V282.828H344.127V259.702Z" fill="#78C2F4"/>
<path d="M325.492 274.53C327.828 274.53 329.722 272.636 329.722 270.3C329.722 267.964 327.828 266.07 325.492 266.07C323.156 266.07 321.262 267.964 321.262 270.3C321.262 272.636 323.156 274.53 325.492 274.53Z" fill="#F7B699"/>
<path d="M341.04 271.695C340.928 274.029 342.729 276.011 345.063 276.124C347.397 276.236 349.38 274.435 349.492 272.101C349.604 269.767 347.803 267.784 345.469 267.672C343.135 267.56 341.153 269.362 341.04 271.695Z" fill="#F7B699"/>
<path d="M330.03 230.255C330.037 230.574 330.119 230.891 330.273 231.169C330.879 232.258 332.341 231.89 332.735 230.825C332.9 230.38 332.882 229.868 332.738 229.42C332.499 228.681 331.875 228.078 331.082 228.489C330.619 228.728 330.261 229.161 330.111 229.658C330.053 229.852 330.027 230.054 330.03 230.255Z" fill="#C46E58"/>
<path d="M333.987 223.364C335.089 222.775 337.494 221.998 339.766 222.323C342.254 222.575 343.4 223.798 343.66 225.316C344.105 227.923 344.002 231.057 342.851 233.386C342.658 233.776 342.257 234.769 342.026 235.138C340.179 238.076 336.756 238.337 335.039 237.922C332.986 237.426 331.872 235.714 331.524 233.317C331.462 232.886 331.447 231.482 331.44 231.047C331.399 228.376 332.827 223.983 333.987 223.364Z" fill="#F7B699"/>
<path d="M333.497 220.779C334.808 219.949 336.536 219.581 338.152 219.366C342.274 218.82 345.332 221.619 345.366 225.594C345.378 226.954 344.701 230.024 343.157 230.635C341.28 231.378 341.465 229.218 341.706 227.875C341.796 227.375 341.958 226.885 341.968 226.377C341.978 225.868 341.799 225.315 341.353 225.023C341.04 224.818 340.647 224.771 340.272 224.735C338.982 224.609 331.711 225.204 331.804 222.769C331.81 222.592 331.894 222.427 331.987 222.275C332.363 221.655 332.885 221.166 333.497 220.779Z" fill="#333842"/>
<path d="M334.396 225.127C336.183 225.51 338.259 225.356 339.839 224.396" stroke="#333842" stroke-width="0.75" stroke-miterlimit="10" stroke-linecap="round" stroke-linejoin="round"/>
<path d="M343.474 221.208C343.157 220.061 342.097 219.157 340.915 219.024" stroke="#333842" stroke-width="0.75" stroke-miterlimit="10" stroke-linecap="round" stroke-linejoin="round"/>
<path d="M344.541 221.2C344.261 221.008 343.838 221.066 343.62 221.328" stroke="#333842" stroke-width="0.75" stroke-miterlimit="10" stroke-linecap="round" stroke-linejoin="round"/>
<path d="M331.302 229.761C331.32 229.854 331.341 229.946 331.366 230.033C331.423 230.015 331.54 229.972 331.57 229.916C332.391 228.409 331.922 226.171 333.183 224.923C333.613 224.498 334.273 224.187 334.336 223.586C334.363 223.324 334.262 223.067 334.153 222.828C334.095 222.701 334.03 222.569 333.917 222.484C333.765 222.371 333.56 222.367 333.373 222.388C330.902 222.679 331.065 225.515 331.176 227.326C331.223 228.083 331.159 229.006 331.302 229.761Z" fill="#333842"/>
<path d="M342.252 232.006C342.758 232.737 343.721 232.987 344.381 232.298C344.682 231.983 344.822 231.548 344.896 231.119C344.963 230.737 344.984 230.338 344.873 229.966C344.722 229.46 344.306 229.118 343.817 228.953C342.162 228.393 341.502 230.924 342.252 232.006Z" fill="#F7B699"/>
<path d="M333.004 227.357C333.419 227.241 333.861 227.225 334.283 227.311" stroke="#333842" stroke-width="0.4761" stroke-miterlimit="10" stroke-linecap="round"/>
<path d="M334.821 234.016C335.472 234.394 336.282 234.486 337 234.264" stroke="#333842" stroke-width="0.4761" stroke-miterlimit="10" stroke-linecap="round"/>
<path d="M338.268 227.226C338.875 227.156 339.504 227.274 340.044 227.56" stroke="#333842" stroke-width="0.4761" stroke-miterlimit="10" stroke-linecap="round"/>
<path d="M338.849 229.624C338.849 229.924 338.605 230.167 338.305 230.167C338.004 230.167 337.762 229.923 337.762 229.624C337.762 229.323 338.005 229.08 338.305 229.08C338.605 229.08 338.849 229.323 338.849 229.624Z" fill="#333842"/>
<path d="M334.065 229.369C334.065 229.67 333.821 229.912 333.521 229.912C333.22 229.912 332.977 229.669 332.977 229.369C332.977 229.069 333.22 228.825 333.521 228.825C333.821 228.826 334.065 229.069 334.065 229.369Z" fill="#333842"/>
<path d="M335.409 232.577C334.908 232.497 334.195 232.138 334.465 231.538C334.536 231.379 334.654 231.246 334.759 231.107C335.086 230.676 335.298 230.16 335.372 229.624" stroke="#333842" stroke-width="0.4761" stroke-miterlimit="10" stroke-linecap="round"/>
<path d="M82.1739 269.407H65.1908V292.533H82.1739V269.407Z" fill="#AACCCD"/>
<path d="M63.5368 284.235C65.8731 284.235 67.7671 282.341 67.7671 280.005C67.7671 277.669 65.8731 275.775 63.5368 275.775C61.2005 275.775 59.3066 277.669 59.3066 280.005C59.3066 282.341 61.2005 284.235 63.5368 284.235Z" fill="#F7B699"/>
<path d="M79.0847 281.401C78.9729 283.735 80.7738 285.717 83.108 285.83C85.4421 285.941 87.4243 284.141 87.5369 281.806C87.6487 279.472 85.8478 277.49 83.5137 277.377C81.1795 277.266 79.1965 279.067 79.0847 281.401Z" fill="#F7B699"/>
<path d="M48.4456 386.962C48.1732 385.613 47.7965 384.304 47.2806 383.108C46.4948 382.563 45.7488 381.944 45.1113 381.133C44.8165 380.759 44.5341 380.335 44.1458 380.16C43.8535 380.027 43.5298 380.049 43.2151 380.073C41.5219 380.203 39.8237 380.285 38.1271 380.365C38.1287 381.737 38.0948 383.212 37.8365 384.566C37.7445 385.049 37.396 386.587 37.675 387.231L48.4456 386.962Z" fill="#333842"/>
<path d="M59.7603 291.098C59.7421 291.077 59.7239 291.056 59.7057 291.035C57.5794 288.622 54.2136 287.64 51.2973 288.582C43.6301 291.058 43.9149 302.925 43.2873 309.903C42.6232 317.285 41.926 324.662 41.1949 332.035C39.8064 346.046 39.1398 366.457 37.512 380.434C38.7093 381.064 39.8618 381.103 41.2098 381.238C43.5514 381.471 44.3231 381.238 45.0716 380.632C47.0307 367.911 51.7511 349.04 54.0281 336.385C55.2254 329.732 56.1453 326.508 57.4303 319.875C58.39 314.922 58.6698 309.829 59.8647 304.926C60.4086 302.695 61.8568 300.578 62.0531 298.361C62.2832 295.759 61.3948 292.991 59.7603 291.098Z" fill="#4F5D7A"/>
<path d="M52.0181 346.313L49.058 345.727" stroke="#333842" stroke-width="0.75" stroke-miterlimit="10" stroke-linecap="round" stroke-linejoin="round"/>
<path d="M51.9862 346.305L48.4863 348.035" stroke="#333842" stroke-width="0.75" stroke-miterlimit="10" stroke-linecap="round" stroke-linejoin="round"/>
<path d="M61.9844 387.033C62.025 387.044 62.0688 387.051 62.1127 387.058C62.453 387.055 62.7933 387.057 63.1337 387.064C63.2206 387.063 63.3067 387.065 63.3903 387.07C63.7969 387.081 64.2034 387.095 64.61 387.117C67.7796 387.288 71.0295 387.775 74.1527 387.764C75.244 387.76 76.3908 387.7 77.3703 387.289C79.899 386.229 76.7543 385 75.7275 384.447C74.6486 383.866 73.7122 383.318 72.5637 382.838C71.1081 382.229 69.703 381.469 68.3757 380.57C66.5657 381.061 64.6953 381.289 62.829 381.245C61.8726 381.224 60.5842 386.62 61.9844 387.033Z" fill="#333842"/>
<path d="M69.3882 304.832C68.8616 301.728 66.2616 291.042 62.7079 290.546C60.3779 290.22 57.4203 291.145 55.8578 293.142C54.6448 294.693 54.0147 296.717 53.7663 298.751C53.349 302.169 53.6769 305.783 53.8946 309.209C54.2399 314.644 55.5953 324.892 55.5953 324.892C55.5953 324.892 62.0869 369.915 61.9693 381.07C64.0939 383.871 70.1524 381.059 70.1706 380.733C70.6691 371.939 70.1607 352.093 70.1624 345.296C70.1632 337.979 70.6161 312.072 69.3882 304.832Z" fill="#6C7995"/>
<path d="M55.187 322.141C54.6678 316.638 54.1486 311.135 53.6287 305.631" stroke="#333842" stroke-width="0.75" stroke-miterlimit="10"/>
<path d="M48.0959 309.273C50.5303 309.937 53.0946 310.441 55.6034 310.704C60.5068 311.219 65.2496 310.436 69.8069 308.85C69.6951 307.218 69.5577 305.84 69.3871 304.832C68.8605 301.728 66.2606 291.042 62.7068 290.546C61.6983 290.405 60.5731 290.499 59.4933 290.812C57.3596 288.565 54.1196 287.67 51.2962 288.583C44.5099 290.775 43.9526 300.321 43.479 307.324C44.8676 308.241 46.4755 308.831 48.0959 309.273Z" fill="#3C4966"/>
<path d="M61.525 247.709C61.5598 248.022 61.5813 248.333 61.5971 248.63C61.6608 249.821 61.7246 251.012 61.7883 252.204C61.8521 253.399 62.0541 254.68 61.9804 255.873C61.8745 257.584 61.5076 259.225 59.9121 260.062C58.9177 260.552 57.7411 260.51 56.7351 260.076C55.9584 259.74 54.9739 259.213 54.6667 258.344C54.4655 257.775 54.4663 257.153 54.4696 256.546C54.4796 254.557 54.4357 252.567 54.516 250.579C54.5682 249.301 54.4738 247.92 55.0244 246.737C55.7787 245.116 57.7162 243.525 59.5163 244.233C60.9322 244.79 61.3661 246.28 61.525 247.709Z" fill="#F7B699"/>
<path d="M65.8599 245.662L65.8748 245.639C65.8219 245.569 65.7738 245.508 65.7316 245.457C65.4294 244.953 65.2025 244.373 64.9442 243.851C64.9591 243.881 64.7099 244.185 64.6842 244.246C64.5972 244.451 64.5765 244.706 64.5451 244.926C64.4764 245.402 64.4557 245.885 64.4838 246.366C64.4946 246.548 64.5161 246.74 64.6254 246.885C64.8804 247.223 65.7705 246.912 66.1191 246.862C66.2342 246.846 66.3708 246.813 66.4106 246.703C66.5298 246.372 66.0578 245.924 65.8599 245.662Z" fill="#F7B699"/>
<path d="M54.1001 238.758C55.0548 238.068 57.2432 237.051 59.531 237.109C62.015 237.072 63.3911 238.119 63.9608 239.549C64.8335 241.74 65.1879 244.113 65.1953 246.462C65.1986 247.641 65.115 248.819 64.9552 249.986C64.807 251.069 64.3201 251.834 63.1593 252.032C62.0837 252.216 60.9932 252.299 59.9036 252.315C58.9323 252.329 57.7657 252.425 56.8342 252.141C55.2361 251.653 54.3121 250.075 53.7673 248.601C53.6166 248.195 53.3085 246.846 53.2117 246.428C52.6138 243.867 53.0949 239.483 54.1001 238.758Z" fill="#F7B699"/>
<path d="M63.0795 235.566C62.6291 234.464 61.4715 233.691 60.2809 233.699" stroke="#333842" stroke-width="0.75" stroke-miterlimit="10" stroke-linecap="round" stroke-linejoin="round"/>
<path d="M64.1385 235.433C63.8371 235.275 63.4248 235.382 63.2393 235.668" stroke="#333842" stroke-width="0.75" stroke-miterlimit="10" stroke-linecap="round" stroke-linejoin="round"/>
<path d="M59.6632 249.916C59.7634 249.893 59.8478 249.853 59.8992 249.788C60.0548 249.587 60.0159 248.879 60.0499 248.619C60.1467 247.866 60.2436 247.112 60.3413 246.36C60.4026 245.886 60.3513 245.484 60.7412 245.187C61.0931 244.918 61.5485 244.814 61.9841 244.812C63.5366 244.807 63.9348 244.989 63.708 243.312C63.6003 242.515 63.4091 241.7 63.5622 240.894C63.6599 240.379 63.7841 240.281 64.0872 239.933C64.5716 239.374 65.1015 239.187 65.2307 238.558C64.2809 235.307 61.2016 233.439 57.5775 234.363C55.9985 234.765 54.3259 235.336 53.1212 236.314C52.5589 236.772 52.0986 237.317 51.798 237.976C51.7235 238.139 51.6597 238.312 51.6738 238.489C51.6854 238.63 51.7218 238.757 51.7781 238.873C50.8243 240.334 51.4105 242.284 51.6978 243.862C51.899 244.967 52.2393 246.045 52.6782 247.078C52.8976 247.595 53.1427 248.102 53.4093 248.596C53.5169 248.796 54.0419 250 54.2 250.007C55.7882 250.079 57.3804 250.062 58.9668 249.956C59.154 249.943 59.4463 249.967 59.6632 249.916Z" fill="#333842"/>
<path d="M61.0043 246.378C61.593 247.044 62.5783 247.179 63.1529 246.417C63.4146 246.069 63.5023 245.62 63.5263 245.186C63.5479 244.798 63.5214 244.4 63.3682 244.044C63.1587 243.559 62.705 243.269 62.1999 243.162C60.4901 242.8 60.1315 245.392 61.0043 246.378Z" fill="#F7B699"/>
<path d="M61.7227 244.244C61.7575 244.019 62.0572 243.919 62.2667 244.01C62.4754 244.101 62.6021 244.315 62.6931 244.523C62.8447 244.871 62.9366 245.245 62.9622 245.624C62.7693 245.557 62.5325 245.672 62.4671 245.865C62.4009 246.057 62.5176 246.293 62.7113 246.358" stroke="#333842" stroke-width="0.4761" stroke-miterlimit="10" stroke-linecap="round"/>
<path d="M64.0576 241.97C64.4558 241.806 64.893 241.738 65.3219 241.773" stroke="#333842" stroke-width="0.4761" stroke-miterlimit="10" stroke-linecap="round"/>
<path d="M65.349 243.843C65.3846 244.141 65.1709 244.411 64.8729 244.446C64.5748 244.482 64.3049 244.268 64.2693 243.97C64.2337 243.672 64.4473 243.401 64.7454 243.367C65.0434 243.332 65.3134 243.545 65.349 243.843Z" fill="#333842"/>
<path d="M64.0868 248.483C64.283 248.479 64.7202 248.427 64.9065 248.402" stroke="#333842" stroke-width="0.4761" stroke-miterlimit="10" stroke-linecap="round"/>
<path d="M49.1272 287.505H43.9124C40.954 287.505 38.5561 285.107 38.5561 282.148C38.5561 279.19 40.954 276.792 43.9124 276.792H49.1272C52.0856 276.792 54.4835 279.19 54.4835 282.148C54.4835 285.106 52.0848 287.505 49.1272 287.505Z" fill="#3D434F"/>
<path d="M46.2084 259.641C42.2671 264.223 38.6819 274.233 38.3085 280.202C38.2157 281.683 38.4898 283.235 39.3592 284.438C40.2286 285.641 41.767 286.416 43.221 286.118C44.7586 285.802 45.8449 284.438 46.6241 283.075C47.8868 280.865 49.7258 275.278 50.2234 272.867C50.7815 270.166 51.9986 267.622 52.483 264.864C52.7844 263.147 54.3949 255.094 50.4668 256.151C49.8011 256.33 49.2306 256.754 48.699 257.194C47.7924 257.942 46.9636 258.762 46.2084 259.641Z" fill="#4F5D7A"/>
<path d="M52.7778 255.531L54.24 253.216L62.1002 252.972L63.9889 255.652L52.7778 255.531Z" fill="white"/>
<path d="M69.7289 290.061L68.1358 258.936C67.9106 258.939 68.1532 256.532 67.3807 256.07C66.2861 255.414 63.3003 254.949 62.4624 254.786L54.1989 254.861C53.1739 254.988 51.777 255.385 50.5856 255.769C49.1324 256.238 48.0767 257.501 47.9086 258.988L46.7585 274.9L45.1779 289.792L41.4494 301.038C42.8106 302.373 44.3673 303.508 46.1077 304.393C46.631 304.658 47.1667 304.893 47.7066 305.113C47.7066 305.113 55.3441 308.186 62.4624 306.608C63.7938 306.434 65.1112 306.198 66.3962 305.91C69.1501 305.292 69.6941 304.891 72.3305 303.787L69.7289 290.061Z" fill="#6C7995"/>
<path d="M79.5313 287.505H74.3157C71.3581 287.505 68.9594 285.107 68.9594 282.148C68.9594 279.19 71.3573 276.792 74.3157 276.792H79.5313C82.4889 276.792 84.8876 279.19 84.8876 282.148C84.8876 285.106 82.4889 287.505 79.5313 287.505Z" fill="#6C7995"/>
<path d="M71.2629 260.121C73.2435 263.037 74.4226 266.868 75.6331 270.164C76.8321 273.427 78.8838 277.697 78.8052 281.228C78.7762 282.547 78.2529 283.906 77.1947 284.694C76.0926 285.515 74.5849 285.6 73.2485 285.282C69.2865 284.339 68.1886 280.954 66.949 277.6C65.4404 273.518 64.3947 268.948 64.1446 264.604C64.0419 262.819 63.3555 254.418 67.2869 256.011C67.9534 256.281 68.4916 256.788 68.9876 257.305C69.8313 258.185 70.5889 259.128 71.2629 260.121Z" fill="#6C7995"/>
<path d="M69.4584 282.816C66.4121 276.592 66.0387 274.334 65.402 272.137" stroke="#333842" stroke-width="0.2994" stroke-miterlimit="10"/>
<path d="M66.1581 274.989C65.7101 274.277 65.2622 273.564 64.8142 272.852" stroke="#333842" stroke-width="0.2994" stroke-miterlimit="10"/>
<path d="M280.273 304.184C273.044 305.612 272.847 313.919 273.476 319.865C274.802 332.422 278.452 362.152 278.452 362.152L285.401 398.625L290.259 398.896L287.68 361.99C287.68 361.99 288.912 335.103 290.147 325.737C292.15 312.621 289.878 302.286 280.273 304.184Z" fill="#4F5D7A"/>
<path d="M290.558 397.666C288.625 397.885 287.245 397.872 285.316 397.62C285.314 397.62 285.311 397.619 285.309 397.619C284.89 397.564 284.478 397.76 284.249 398.114C284.109 398.329 283.975 398.531 283.84 398.699C283.123 399.603 282.174 400.116 281.065 400.371C281.026 400.386 280.992 400.408 280.952 400.42C279.633 400.585 278.431 401.26 278.281 402.52H290.43C290.854 400.88 291.057 399.156 290.558 397.666Z" fill="#80ACAD"/>
<path d="M290.652 402.329H278.278V403.926H290.652V402.329Z" fill="#333842"/>
<path d="M281.55 304.399C274.194 303.976 271.927 311.97 271.051 317.884C269.198 330.375 266.169 360.198 266.169 360.198L268.848 398.668L273.916 398.469L276.747 360.402C276.747 360.402 282.19 336.496 285.728 327.735C290.943 315.534 291.324 304.96 281.55 304.399Z" fill="#616E87"/>
<path d="M274.343 397.666C272.41 397.885 271.03 397.872 269.101 397.62C268.848 397.587 268.588 397.549 268.339 397.607C268.113 397.66 267.914 397.786 267.716 397.906C265.859 399.038 263.212 399.827 261.073 400.222C259.842 400.449 258.516 400.577 257.539 401.359C257.188 401.641 256.899 402.106 256.94 402.52H274.215C274.64 400.88 274.842 399.156 274.343 397.666Z" fill="#80ACAD"/>
<path d="M274.179 402.33H256.535V403.926H274.179V402.33Z" fill="#333842"/>
<path d="M282.466 264.242C282.507 263.409 282.452 262.58 282.29 261.772C283.521 262.187 284.806 262.219 286.063 261.881C286.68 261.714 287.273 261.468 287.852 261.197C288.058 261.1 288.429 260.798 288.772 260.608C288.02 263.383 288.08 266.277 289.796 268.66C288.499 269.784 286.809 270.361 285.12 270.649C283.67 270.897 280.201 271.126 281.034 268.685C281.308 267.886 281.893 267.273 282.125 266.445C282.324 265.73 282.429 264.981 282.466 264.242Z" fill="#F7B699"/>
<path d="M285.825 261.936C284.645 262.21 283.444 262.162 282.29 261.772C282.451 262.58 282.507 263.409 282.465 264.242C282.429 264.982 282.323 265.73 282.123 266.444C282.103 266.519 282.076 266.59 282.05 266.661C282.193 266.644 282.336 266.619 282.479 266.591C284.121 265.486 285.246 263.804 285.825 261.936Z" fill="#C46E58"/>
<path d="M278.961 259.03C279.062 259.052 279.161 259.067 279.257 259.071C279.561 259.084 279.526 258.702 279.509 258.482C279.463 257.899 279.462 257.29 279.365 256.714C279.155 256.934 279.069 257.199 278.895 257.442C278.668 257.759 278.438 258.074 278.21 258.389C278.178 258.433 278.146 258.479 278.138 258.532C278.121 258.657 278.246 258.753 278.359 258.81C278.54 258.9 278.751 258.982 278.961 259.03Z" fill="#F7B699"/>
<path d="M289.888 258.798C290.403 257.593 290.673 256.285 290.635 254.979C290.592 253.564 290.129 252.144 289.224 251.055C287.905 249.466 285.657 248.713 283.647 249.187C283.131 249.308 282.635 249.51 282.177 249.776C281.06 250.426 279.76 251.735 279.577 253.084C279.535 253.387 279.597 253.677 279.539 253.983C279.453 254.438 279.357 254.89 279.287 255.347C279.147 256.259 279.067 257.184 279.11 258.106C279.16 259.185 279.293 260.278 279.716 261.271C280.141 262.267 280.814 262.938 281.635 263.365C283.173 264.164 285.032 263.914 286.475 262.952C287.98 261.951 289.172 260.474 289.888 258.798Z" fill="#F7B699"/>
<path d="M279.546 260.201C279.757 260.294 279.969 260.389 280.18 260.482" stroke="#333842" stroke-width="0.4827" stroke-miterlimit="10" stroke-linecap="round"/>
<path d="M260.908 278.452C261.009 277.912 261.416 277.44 261.934 277.259C262.47 277.073 263.377 277.071 263.556 276.532C263.645 276.262 263.734 276.162 263.517 275.978C263.301 275.794 263.011 275.719 262.728 275.702C261.857 275.648 260.975 276.138 260.561 276.905C260.434 277.141 260.25 277.45 259.993 277.374C259.871 277.339 259.791 277.222 259.742 277.105C259.439 276.395 259.858 275.601 260.263 274.945C260.582 274.428 260.923 273.891 261.452 273.591C262.044 273.255 262.766 273.277 263.446 273.324C264.818 273.418 266.256 273.522 267.415 274.339C267.719 274.552 267.996 274.802 268.299 275.017C269.077 275.568 269.996 275.878 270.901 276.179C270.618 277.16 270.336 278.139 270.054 279.12C270.039 279.17 270.021 279.226 269.976 279.253C269.929 279.282 269.867 279.269 269.814 279.256C268.148 278.85 266.227 278.509 264.557 278.248C263.36 278.095 262.092 278.248 260.908 278.452Z" fill="#F7B699"/>
<path d="M281.1 278.787C280.23 278.373 279.298 278.009 278.338 277.681C276.688 277.115 274.953 276.652 273.295 276.214C272.667 276.049 270.262 275.445 269.616 275.342C267.813 276.81 267.304 277.792 267.304 279.962C269.206 281.234 273.825 283.837 275.922 284.837C277.096 285.397 278.262 285.984 279.551 286.37C280.841 286.756 282.286 286.929 283.616 286.636C284.312 286.483 284.996 286.174 285.301 285.673C285.491 285.361 285.515 285.006 285.504 284.662C285.425 282.313 283.715 280.03 281.1 278.787Z" fill="#80ACAD"/>
<path d="M249.76 288.708C249.045 287.439 248.88 285.854 249.405 284.497C249.599 283.994 249.926 283.491 250.44 283.327C251.057 283.131 251.731 283.505 252.121 284.021C252.511 284.538 252.695 285.176 252.944 285.773C253.214 286.418 253.566 287.029 253.991 287.584C254.432 288.161 254.969 288.719 255.096 289.433C255.197 290 255.003 290.612 254.592 291.017C253.066 292.52 250.499 290.02 249.76 288.708Z" fill="#F7B699"/>
<path d="M266.954 287.783L257.731 292.254L245.53 281.179L254.754 276.708L266.954 287.783Z" fill="#F4AE2D"/>
<path d="M265.447 287.322L257.525 291.161L246.983 281.592L254.905 277.752L265.447 287.322Z" fill="white"/>
<path d="M256.11 279.777L249.526 282.967L248.885 282.384L255.467 279.193L256.11 279.777Z" fill="#C8DDF7"/>
<path d="M259.471 282.829L252.888 286.02L252.246 285.437L258.829 282.246L259.471 282.829Z" fill="#C8DDF7"/>
<path d="M260.586 283.841L254.003 287.031L253.361 286.448L259.944 283.258L260.586 283.841Z" fill="#C8DDF7"/>
<path d="M261.701 284.852L255.117 288.043L254.475 287.46L261.058 284.269L261.701 284.852Z" fill="#C8DDF7"/>
<path d="M262.814 285.864L256.231 289.054L255.589 288.471L262.172 285.281L262.814 285.864Z" fill="#C8DDF7"/>
<path d="M263.929 286.875L257.346 290.066L256.704 289.483L263.287 286.292L263.929 286.875Z" fill="#C8DDF7"/>
<path d="M254.513 278.654L248.978 281.335L246.624 279.198L252.158 276.516L254.513 278.654Z" fill="#333842"/>
<path d="M250.716 287.695C250.623 287.803 250.539 287.917 250.464 288.037C249.767 289.157 251.117 290.198 251.975 290.803C253.926 292.175 256.308 292.832 258.57 293.491C259.847 293.863 263.545 292.952 262.524 290.946C261.827 289.576 259.764 288.787 258.407 288.422C256.999 288.158 255.796 287.572 255.268 286.144C255.033 285.51 254.938 284.833 254.732 284.189C254.681 284.03 254.619 283.867 254.497 283.756C254.373 283.644 254.171 283.602 254.04 283.705C253.967 283.763 253.929 283.855 253.896 283.943C253.501 285.045 254.21 285.86 252.854 286.506C252.404 286.721 251.909 286.839 251.473 287.081C251.186 287.238 250.929 287.448 250.716 287.695Z" fill="#F7B699"/>
<path d="M291.559 314.779C291.559 314.779 291.873 314.652 292.112 314.536C293.429 313.858 293.874 312.144 294.005 310.632C294.304 307.161 293.202 303.893 293.336 300.224C293.477 296.34 294.384 292.348 294.931 288.169C295.408 284.525 295.594 280.585 294.776 276.83C294.164 274.026 293.326 270.909 291.613 268.719C290.785 267.66 289.284 267.24 288.128 266.96C286.683 266.609 285.172 266.643 283.728 267.078C281.857 267.642 280.13 268.869 278.789 270.551C277.77 271.83 277.264 274.001 276.743 275.628C275.569 279.297 274.757 283.086 274.324 286.746C273.87 290.585 274.422 289.355 274.226 293.13C274.03 296.909 275.119 299.914 273.178 303.06C272.157 304.716 270.857 306.158 270.21 307.957C269.575 309.723 269.779 312.035 271.274 313.179C271.188 313.851 271.086 314.518 271.024 315.183C274.029 316.645 278.008 316.961 281.22 317.252C284.155 317.517 287.111 317.528 290.058 317.291C290.911 317.291 291.57 317.113 291.57 317.113L291.559 314.779Z" fill="#80ACAD"/>
<path d="M291.387 314.831C287.158 315.313 282.88 315.122 278.713 314.264" stroke="#333842" stroke-width="0.2918" stroke-miterlimit="10" stroke-linecap="round"/>
<path d="M282.694 279.269C282.486 278.867 282.232 278.471 281.854 278.221C281.452 277.955 280.948 277.881 280.466 277.902C278.357 277.997 276.687 279.719 275.56 281.505C274.433 283.291 273.564 285.309 271.957 286.68C269.153 289.073 259.708 288.39 256.571 287.692C254.935 287.838 253.065 290 254.029 292.251C258.235 294.098 270.915 300.841 275.507 298.655C277.108 297.894 278.299 296.569 279.282 295.068C279.85 294.2 280.349 293.273 280.816 292.362C281.862 290.321 282.867 288.228 283.347 285.985C283.827 283.741 283.745 281.309 282.694 279.269Z" fill="#80ACAD"/>
<path d="M284.56 271.675C283.159 270.185 280.757 270.024 279.066 271.086C278.077 271.706 277.575 272.987 277.064 274.003C276.439 275.248 275.904 276.539 275.47 277.862C275.02 279.231 274.675 280.632 274.253 282.009C273.562 284.267 272.661 286.464 272.144 288.767C271.626 291.071 271.512 293.544 272.379 295.741C273.617 298.877 277.744 297.211 279.584 295.466C281.168 293.963 281.927 291.811 282.633 289.744C283.342 287.669 284.05 285.593 284.759 283.517C285.357 281.765 286.043 279.447 286.167 277.203C286.281 275.129 285.916 273.117 284.56 271.675Z" fill="#80ACAD"/>
<path d="M273.303 285.688C274.076 281.05 276.291 275.61 278.491 271.454" stroke="#333842" stroke-width="0.2918" stroke-miterlimit="10"/>
<path d="M285.987 280.767C285.081 283.205 284.175 285.642 283.269 288.079C282.619 289.831 282.001 292.068 280.767 293.512C279.538 294.95 278.393 296.523 276.887 297.705C275.422 298.855 274.176 299.199 272.322 299.018" stroke="#333842" stroke-width="0.2918" stroke-miterlimit="10" stroke-linecap="round"/>
<path d="M286.974 281.415C286.159 281.88 285.476 282.575 285.028 283.399" stroke="#333842" stroke-width="0.2918" stroke-miterlimit="10"/>
<path d="M258.579 280.349L257.492 280.94L258.043 279.833L264.6 273.042C264.742 272.895 264.978 272.89 265.127 273.033C265.275 273.176 265.278 273.411 265.136 273.56L258.579 280.349Z" fill="#333842"/>
<path d="M279.807 257.399C279.45 257.111 279.116 256.8 278.829 256.44C277.01 254.155 278.188 251.628 279.645 249.595C281.268 247.33 284.359 246.09 287.085 246.242C288.641 246.329 290.119 246.832 291.223 247.956C291.734 248.477 292.111 249.031 292.272 249.755C292.32 249.972 292.474 251.671 292.123 251.705C294.81 251.44 294.674 257.284 294.649 258.885C294.584 262.972 294.519 267.06 294.454 271.147C294.43 272.619 294.367 274.209 293.454 275.365C292.553 276.506 290.946 276.955 289.52 276.67C288.095 276.384 286.857 275.448 285.98 274.29C285.234 273.305 284.333 271.835 284.31 270.563C284.283 269.136 284.477 267.663 284.473 266.222C284.465 263.725 283.977 261.049 282.21 259.283C281.49 258.565 280.594 258.036 279.807 257.399Z" fill="#333842"/>
</svg>
