<svg xmlns="http://www.w3.org/2000/svg" width="24" height="23.968" viewBox="0 0 24 23.968">
  <path id="Layer_2" data-name="Layer 2" d="M9.1,21.922c-.6.83-2.2-.176-1.716-1.078C7.954,19.8,9.774,20.948,9.1,21.922ZM12.751,7.377a.8.8,0,0,0,0-1.6,7.187,7.187,0,1,0,5.8,2.634.8.8,0,0,0-1.229,1.014,5.588,5.588,0,0,1-4.359,9.124C5.718,18.345,5.511,7.848,12.751,7.377Zm2.81.639a.8.8,0,0,0,1.078-.335c.407-.8-.487-1.221-1.11-1.429a.8.8,0,0,0-1.03.463C14.212,7.5,15,7.768,15.561,8.016Zm9.116,7.344c-1.836-1.644-1.724-3.057,0-4.79a.774.774,0,0,0-.311-1.357c-2.395-.6-3.145-1.82-2.395-4.175a.8.8,0,0,0-1.022-1.022c-2.395.71-3.608,0-4.183-2.395a.8.8,0,0,0-1.4-.375c-1.668,1.78-3.153,1.78-4.79,0a.8.8,0,0,0-1.357.343c-.631,2.395-1.82,3.193-4.167,2.435a.8.8,0,0,0-1.03.958c.647,2.395,0,3.672-2.395,4.191a.823.823,0,0,0-.407,1.4C3,12.262,3,13.7,1.216,15.36a.8.8,0,0,0,.351,1.357A5.588,5.588,0,0,1,3,17.252c.806.455,1.756,1.3,1.03,3.7a.8.8,0,0,0,.16.8c.511.527,1.309,0,1.876,0a.808.808,0,0,0-.255-1.6A3.976,3.976,0,0,0,3.18,15.631a4.319,4.319,0,0,0,1.006-2.666,4.279,4.279,0,0,0-.958-2.594A4.215,4.215,0,0,0,5.3,8.694a4.47,4.47,0,0,0,.487-2.85,4.2,4.2,0,0,0,2.642-.415A4.4,4.4,0,0,0,10.308,3.2a3.991,3.991,0,0,0,5.237,0A3.991,3.991,0,0,0,20.063,5.82a3.991,3.991,0,0,0,2.65,4.526,3.991,3.991,0,0,0-.064,5.213,3.991,3.991,0,0,0-2.5,4.526,3.991,3.991,0,0,0-4.526,2.65,3.991,3.991,0,0,0-5.3,0,.8.8,0,0,0-.87-.192c-.8.319-.431,1.134-.255,1.764a.8.8,0,0,0,1.357.359c1.668-1.78,3.153-1.78,4.79,0a.8.8,0,0,0,1.357-.343,3.688,3.688,0,0,1,1.541-2.459,3.289,3.289,0,0,1,2.618,0,.8.8,0,0,0,1.054-.918c-.631-2.395,0-3.7,2.395-4.2a.8.8,0,0,0,.367-1.389Z" transform="translate(-0.963 -0.954)" fill="#f5a732"/>
</svg>

